<svg width="360" height="350" viewBox="0 0 360 350" fill="none" xmlns="http://www.w3.org/2000/svg">
<line x1="40.75" y1="3.27835e-08" x2="40.75" y2="350" stroke="#CCCCCC" stroke-opacity="0.1" stroke-width="1.5"/>
<line x1="120.75" y1="3.27835e-08" x2="120.75" y2="350" stroke="#CCCCCC" stroke-opacity="0.1" stroke-width="1.5"/>
<line x1="200.75" y1="3.27835e-08" x2="200.75" y2="350" stroke="#CCCCCC" stroke-opacity="0.1" stroke-width="1.5"/>
<line x1="280.75" y1="3.27835e-08" x2="280.75" y2="350" stroke="#CCCCCC" stroke-opacity="0.1" stroke-width="1.5"/>
<line x1="-5.9666e-08" y1="105.25" x2="360" y2="105.25" stroke="#CCCCCC" stroke-opacity="0.1" stroke-width="1.5"/>
<line x1="-5.9666e-08" y1="185.25" x2="360" y2="185.25" stroke="#CCCCCC" stroke-opacity="0.1" stroke-width="1.5"/>
<line x1="-5.9666e-08" y1="265.25" x2="360" y2="265.25" stroke="#CCCCCC" stroke-opacity="0.1" stroke-width="1.5"/>
<path d="M117.008 105.92V104.784H120.064V101.872H121.264V104.784H124.32V105.92H121.264V108.848H120.064V105.92H117.008Z" fill="#CCCCCC"/>
<path d="M37.008 265.92V264.784H40.064V261.872H41.264V264.784H44.32V265.92H41.264V268.848H40.064V265.92H37.008Z" fill="#CCCCCC"/>
<line x1="120.5" y1="117" x2="120.5" y2="155" stroke="url(#paint0_linear_1_1517)"/>
<defs>
<linearGradient id="paint0_linear_1_1517" x1="119.5" y1="155" x2="119.5" y2="117" gradientUnits="userSpaceOnUse">
<stop stop-color="#EA2328"/>
<stop offset="1" stop-color="#CCCCCC" stop-opacity="0.15"/>
</linearGradient>
</defs>
</svg>
