<svg width="50" height="50" viewBox="0 0 50 50" fill="none" xmlns="http://www.w3.org/2000/svg">
<circle cx="25" cy="25" r="25" fill="url(#paint0_linear_1_1043)"/>
<path d="M26.3 21.1099L27.62 23.7499C27.8 24.1099 28.28 24.4699 28.68 24.5299L31.07 24.93C32.6 25.1899 32.96 26.29 31.86 27.39L30 29.2599C29.69 29.57 29.51 30.18 29.61 30.62L30.14 32.9299C30.56 34.7499 29.59 35.4599 27.98 34.5099L25.74 33.1799C25.33 32.9399 24.67 32.9399 24.26 33.1799L22.01 34.4999C20.4 35.4499 19.43 34.7399 19.85 32.9199L20.38 30.61C20.48 30.1799 20.3 29.5699 19.99 29.2499L18.14 27.3999C17.04 26.2999 17.4 25.1899 18.93 24.9399L21.32 24.5399C21.72 24.4699 22.2 24.1199 22.38 23.7599L23.7 21.1199C24.41 19.6799 25.59 19.6799 26.3 21.1099Z" fill="white"/>
<path d="M19 22.75C18.59 22.75 18.25 22.41 18.25 22V15C18.25 14.59 18.59 14.25 19 14.25C19.41 14.25 19.75 14.59 19.75 15V22C19.75 22.41 19.41 22.75 19 22.75Z" fill="white"/>
<path d="M31 22.75C30.59 22.75 30.25 22.41 30.25 22V15C30.25 14.59 30.59 14.25 31 14.25C31.41 14.25 31.75 14.59 31.75 15V22C31.75 22.41 31.41 22.75 31 22.75Z" fill="white"/>
<path d="M25 17.75C24.59 17.75 24.25 17.41 24.25 17V15C24.25 14.59 24.59 14.25 25 14.25C25.41 14.25 25.75 14.59 25.75 15V17C25.75 17.41 25.41 17.75 25 17.75Z" fill="white"/>
<defs>
<linearGradient id="paint0_linear_1_1043" x1="25" y1="0" x2="25" y2="50" gradientUnits="userSpaceOnUse">
<stop stop-color="#EA2328"/>
<stop offset="1" stop-color="#841417"/>
</linearGradient>
</defs>
</svg>
