<svg width="50" height="50" viewBox="0 0 50 50" fill="none" xmlns="http://www.w3.org/2000/svg">
<circle cx="25" cy="25" r="25" fill="url(#paint0_linear_1_1055)"/>
<path d="M31.54 17.12L26.04 15.06C25.47 14.85 24.54 14.85 23.97 15.06L18.47 17.12C17.41 17.52 16.55 18.76 16.55 19.89V27.99C16.55 28.8 17.08 29.87 17.73 30.35L23.23 34.46C24.2 35.19 25.79 35.19 26.76 34.46L32.26 30.35C32.91 29.86 33.4401 28.8 33.4401 27.99V19.89C33.4501 18.76 32.59 17.52 31.54 17.12ZM28.48 22.72L24.18 27.02C24.03 27.17 23.84 27.24 23.65 27.24C23.46 27.24 23.27 27.17 23.12 27.02L21.52 25.4C21.23 25.11 21.23 24.63 21.52 24.34C21.81 24.05 22.29 24.05 22.58 24.34L23.66 25.42L27.43 21.65C27.72 21.36 28.2 21.36 28.49 21.65C28.78 21.94 28.78 22.43 28.48 22.72Z" fill="white"/>
<defs>
<linearGradient id="paint0_linear_1_1055" x1="25" y1="0" x2="25" y2="50" gradientUnits="userSpaceOnUse">
<stop stop-color="#EA2328"/>
<stop offset="1" stop-color="#841417"/>
</linearGradient>
</defs>
</svg>
