<svg width="20" height="20" viewBox="0 0 20 20" fill="none" xmlns="http://www.w3.org/2000/svg">
<path d="M13.9167 15.8166H6.08338C5.73338 15.8166 5.34171 15.5416 5.22504 15.2082L1.77504 5.55822C1.28338 4.17489 1.85838 3.74989 3.04171 4.59989L6.29171 6.92489C6.83338 7.29989 7.45004 7.10822 7.68338 6.49989L9.15004 2.59155C9.61671 1.34155 10.3917 1.34155 10.8584 2.59155L12.325 6.49989C12.5584 7.10822 13.175 7.29989 13.7084 6.92489L16.7584 4.74989C18.0584 3.81655 18.6834 4.29155 18.15 5.79989L14.7834 15.2249C14.6584 15.5416 14.2667 15.8166 13.9167 15.8166Z" stroke="#EA2328" stroke-width="1.2" stroke-linecap="round" stroke-linejoin="round"/>
<path d="M5.41663 18.3333H14.5833" stroke="#EA2328" stroke-width="1.2" stroke-linecap="round" stroke-linejoin="round"/>
<path d="M7.91663 11.6667H12.0833" stroke="#EA2328" stroke-width="1.2" stroke-linecap="round" stroke-linejoin="round"/>
</svg>
