<svg width="20" height="20" viewBox="0 0 20 20" fill="none" xmlns="http://www.w3.org/2000/svg">
<path d="M9.99996 12.0834C11.1506 12.0834 12.0833 11.1507 12.0833 10.0001C12.0833 8.84949 11.1506 7.91675 9.99996 7.91675C8.84937 7.91675 7.91663 8.84949 7.91663 10.0001C7.91663 11.1507 8.84937 12.0834 9.99996 12.0834Z" stroke="#EA2328" stroke-width="1.2" stroke-miterlimit="10" stroke-linecap="round" stroke-linejoin="round"/>
<path d="M15.4166 7.91675V12.0834" stroke="#EA2328" stroke-width="1.2" stroke-miterlimit="10" stroke-linecap="round" stroke-linejoin="round"/>
<path d="M7.50004 15.0001C7.50004 15.6251 7.32505 16.2167 7.01672 16.7167C6.44172 17.6834 5.38337 18.3334 4.16671 18.3334C2.95004 18.3334 1.8917 17.6834 1.3167 16.7167C1.00836 16.2167 0.833374 15.6251 0.833374 15.0001C0.833374 13.1584 2.32504 11.6667 4.16671 11.6667C6.00837 11.6667 7.50004 13.1584 7.50004 15.0001Z" stroke="#EA2328" stroke-width="1.2" stroke-miterlimit="10" stroke-linecap="round" stroke-linejoin="round"/>
<path d="M5.40983 14.9829H2.92651" stroke="#EA2328" stroke-width="1.2" stroke-miterlimit="10" stroke-linecap="round" stroke-linejoin="round"/>
<path d="M4.16675 13.7664V16.258" stroke="#EA2328" stroke-width="1.2" stroke-miterlimit="10" stroke-linecap="round" stroke-linejoin="round"/>
<path d="M1.66663 12.7499V7.49992C1.66663 4.58325 3.33329 3.33325 5.83329 3.33325H14.1666C16.6666 3.33325 18.3333 4.58325 18.3333 7.49992V12.4999C18.3333 15.4166 16.6666 16.6666 14.1666 16.6666H7.08329" stroke="#EA2328" stroke-width="1.2" stroke-miterlimit="10" stroke-linecap="round" stroke-linejoin="round"/>
</svg>
