<svg width="50" height="50" viewBox="0 0 50 50" fill="none" xmlns="http://www.w3.org/2000/svg">
<circle cx="25" cy="25" r="25" fill="url(#paint0_linear_1_1293)"/>
<path d="M29.19 15H20.81C17.17 15 15 17.17 15 20.81V29.18C15 32.83 17.17 35 20.81 35H29.18C32.82 35 34.99 32.83 34.99 29.19V20.81C35 17.17 32.83 15 29.19 15ZM20.63 31.15C20.63 31.56 20.29 31.9 19.88 31.9C19.47 31.9 19.13 31.56 19.13 31.15V29.08C19.13 28.67 19.47 28.33 19.88 28.33C20.29 28.33 20.63 28.67 20.63 29.08V31.15ZM25.75 31.15C25.75 31.56 25.41 31.9 25 31.9C24.59 31.9 24.25 31.56 24.25 31.15V27C24.25 26.59 24.59 26.25 25 26.25C25.41 26.25 25.75 26.59 25.75 27V31.15ZM30.87 31.15C30.87 31.56 30.53 31.9 30.12 31.9C29.71 31.9 29.37 31.56 29.37 31.15V24.93C29.37 24.52 29.71 24.18 30.12 24.18C30.53 24.18 30.87 24.52 30.87 24.93V31.15ZM30.87 21.77C30.87 22.18 30.53 22.52 30.12 22.52C29.71 22.52 29.37 22.18 29.37 21.77V20.8C26.82 23.42 23.63 25.27 20.06 26.16C20 26.18 19.94 26.18 19.88 26.18C19.54 26.18 19.24 25.95 19.15 25.61C19.05 25.21 19.29 24.8 19.7 24.7C23.07 23.86 26.07 22.09 28.45 19.59H27.2C26.79 19.59 26.45 19.25 26.45 18.84C26.45 18.43 26.79 18.09 27.2 18.09H30.13C30.17 18.09 30.2 18.11 30.24 18.11C30.29 18.12 30.34 18.12 30.39 18.14C30.44 18.16 30.48 18.19 30.53 18.22C30.56 18.24 30.59 18.25 30.62 18.27C30.63 18.28 30.63 18.29 30.64 18.29C30.68 18.33 30.71 18.37 30.74 18.41C30.77 18.45 30.8 18.48 30.81 18.52C30.83 18.56 30.83 18.6 30.84 18.65C30.85 18.7 30.87 18.75 30.87 18.81C30.87 18.82 30.88 18.83 30.88 18.84V21.77H30.87Z" fill="black"/>
<defs>
<linearGradient id="paint0_linear_1_1293" x1="25" y1="0" x2="25" y2="50" gradientUnits="userSpaceOnUse">
<stop stop-color="white"/>
<stop offset="1" stop-color="white"/>
</linearGradient>
</defs>
</svg>
