<svg width="50" height="50" viewBox="0 0 50 50" fill="none" xmlns="http://www.w3.org/2000/svg">
<circle cx="25" cy="25" r="25" fill="url(#paint0_linear_1_1305)"/>
<path d="M21.2591 34.2448C21.9061 33.5978 22.2778 32.7719 22.3741 31.9185C22.5049 30.7828 22.1263 29.6059 21.2591 28.7387C20.7429 28.2225 20.1097 27.8783 19.4421 27.72C18.1688 27.3965 16.7578 27.7338 15.753 28.7387C15.0578 29.4338 14.6793 30.3217 14.6311 31.2371C14.5967 31.6294 14.6311 32.0355 14.7343 32.4278C14.8926 33.0954 15.2368 33.7286 15.753 34.2448C17.274 35.7659 19.7381 35.7659 21.2591 34.2448ZM19.9652 30.7759C20.3644 30.7759 20.6947 31.1063 20.6947 31.5055C20.6879 31.9116 20.3644 32.2351 19.9583 32.242L19.2356 32.2351L19.2425 32.9302C19.2356 33.3363 18.9121 33.6598 18.5061 33.6667C18.1 33.6598 17.7765 33.3363 17.7696 32.9302L17.7765 32.2351L17.0538 32.242C16.6477 32.2351 16.3242 31.9116 16.3174 31.5055C16.3242 31.3059 16.4068 31.127 16.5376 30.9962C16.6684 30.8654 16.8473 30.7828 17.0469 30.7759L17.7765 30.7759L17.7765 30.0188C17.7765 29.8124 17.8591 29.6334 17.9898 29.5026C18.1206 29.3719 18.2996 29.2893 18.506 29.2893C18.9052 29.2893 19.2356 29.6196 19.2356 30.0188L19.2356 30.7759L19.9652 30.7759Z" fill="black"/>
<path d="M28.0952 16.8455V20.5443H26.6352V16.8455C26.6352 16.5827 26.4016 16.4562 26.2458 16.4562C26.1972 16.4562 26.1485 16.4659 26.0998 16.4854L18.3811 19.3957C17.8652 19.5904 17.5343 20.0771 17.5343 20.6319V21.2841C16.6485 21.9459 16.0742 23.0069 16.0742 24.2041V20.6319C16.0742 19.4736 16.7848 18.4418 17.8652 18.033L25.5937 15.113C25.8078 15.0351 26.0317 14.9961 26.2458 14.9961C27.2192 14.9961 28.0952 15.7846 28.0952 16.8455Z" fill="black"/>
<path d="M34.5696 27.1153V28.0886C34.5696 28.3514 34.3651 28.5656 34.0926 28.5753H32.6715C32.1556 28.5753 31.6884 28.1957 31.6495 27.6895C31.6203 27.3878 31.7371 27.1055 31.9317 26.9108C32.107 26.7259 32.3503 26.6286 32.6131 26.6286H34.0829C34.3651 26.6383 34.5696 26.8524 34.5696 27.1153Z" fill="black"/>
<path d="M32.6019 25.605H33.5947C34.1301 25.605 34.5681 25.167 34.5681 24.6317V24.2034C34.5681 22.1885 32.9231 20.5435 30.9082 20.5435H19.7341C18.9067 20.5435 18.1475 20.8161 17.5343 21.2833C16.6485 21.9452 16.0742 23.0061 16.0742 24.2034V25.936C16.0742 26.3058 16.4636 26.5394 16.814 26.4226C17.3591 26.2377 17.9333 26.1404 18.5076 26.1404C21.4569 26.1404 23.8611 28.5446 23.8611 31.4938C23.8611 32.1947 23.6762 32.9636 23.3842 33.645C23.2284 33.9954 23.4718 34.4139 23.8514 34.4139H30.9082C32.9231 34.4139 34.5681 32.7689 34.5681 30.7541V30.5691C34.5681 30.0338 34.1301 29.5958 33.5947 29.5958H32.7479C31.8135 29.5958 30.918 29.0215 30.6746 28.1163C30.4799 27.3765 30.7136 26.6562 31.2002 26.189C31.5604 25.8192 32.0568 25.605 32.6019 25.605ZM27.2679 25.4103H22.4011C22.002 25.4103 21.671 25.0794 21.671 24.6803C21.671 24.2812 22.002 23.9503 22.4011 23.9503H27.2679C27.6669 23.9503 27.9979 24.2812 27.9979 24.6803C27.9979 25.0794 27.6669 25.4103 27.2679 25.4103Z" fill="black"/>
<defs>
<linearGradient id="paint0_linear_1_1305" x1="25" y1="0" x2="25" y2="50" gradientUnits="userSpaceOnUse">
<stop stop-color="white"/>
<stop offset="1" stop-color="white"/>
</linearGradient>
</defs>
</svg>
