<svg width="50" height="50" viewBox="0 0 50 50" fill="none" xmlns="http://www.w3.org/2000/svg">
<circle cx="25" cy="25" r="25" fill="url(#paint0_linear_1_1317)"/>
<path d="M31.01 15V16.5C31.67 16.5 32.3 16.77 32.76 17.22C33.24 17.71 33.5 18.34 33.5 19V21.42C33.5 22.16 33.17 22.5 32.42 22.5H30.5V17.01C30.5 16.73 30.73 16.5 31.01 16.5V15ZM31.01 15C29.9 15 29 15.9 29 17.01V24H32.42C34 24 35 23 35 21.42V19C35 17.9 34.55 16.9 33.83 16.17C33.1 15.45 32.11 15.01 31.01 15C31.02 15 31.01 15 31.01 15Z" fill="black"/>
<path d="M20 15H19C16 15 15 16.79 15 19V20V34C15 34.83 15.94 35.3 16.6 34.8L18.31 33.52C18.71 33.22 19.27 33.26 19.63 33.62L21.29 35.29C21.68 35.68 22.32 35.68 22.71 35.29L24.39 33.61C24.74 33.26 25.3 33.22 25.69 33.52L27.4 34.8C28.06 35.29 29 34.82 29 34V17C29 15.9 29.9 15 31 15H20ZM24.75 23.75H22.75V25.75C22.75 26.16 22.41 26.5 22 26.5C21.59 26.5 21.25 26.16 21.25 25.75V23.75H19.25C18.84 23.75 18.5 23.41 18.5 23C18.5 22.59 18.84 22.25 19.25 22.25H21.25V20.25C21.25 19.84 21.59 19.5 22 19.5C22.41 19.5 22.75 19.84 22.75 20.25V22.25H24.75C25.16 22.25 25.5 22.59 25.5 23C25.5 23.41 25.16 23.75 24.75 23.75Z" fill="black"/>
<defs>
<linearGradient id="paint0_linear_1_1317" x1="25" y1="0" x2="25" y2="50" gradientUnits="userSpaceOnUse">
<stop stop-color="white"/>
<stop offset="1" stop-color="white"/>
</linearGradient>
</defs>
</svg>
