<svg width="520" height="291" viewBox="0 0 520 291" fill="none" xmlns="http://www.w3.org/2000/svg">
<g clip-path="url(#clip0_1_906)">
<rect width="520" height="291" rx="12" fill="#F6363C"/>
<g filter="url(#filter0_f_1_906)">
<rect x="418" y="11" width="96" height="70" fill="#F65B60"/>
</g>
<g filter="url(#filter1_f_1_906)">
<rect x="418" y="11" width="96" height="70" fill="#F65B60"/>
</g>
<g filter="url(#filter2_f_1_906)">
<rect x="129" y="216" width="96" height="70" fill="#F65B60"/>
</g>
<g filter="url(#filter3_f_1_906)">
<rect x="145" y="213" width="96" height="70" fill="#F65B60"/>
</g>
<rect x="28" y="28" width="464" height="235" rx="12" fill="white"/>
<path d="M48.888 66V57.6H49.896V66H48.888ZM51.6171 66V60.048H52.5291L52.5891 61.116C52.7811 60.74 53.0571 60.444 53.4171 60.228C53.7771 60.012 54.1851 59.904 54.6411 59.904C55.3451 59.904 55.9051 60.12 56.3211 60.552C56.7451 60.976 56.9571 61.632 56.9571 62.52V66H55.9491V62.628C55.9491 61.388 55.4371 60.768 54.4131 60.768C53.9011 60.768 53.4731 60.956 53.1291 61.332C52.7931 61.7 52.6251 62.228 52.6251 62.916V66H51.6171ZM60.0831 66L57.8271 60.048H58.8831L60.6711 65.028L62.4711 60.048H63.5031L61.2471 66H60.0831ZM66.9962 66.144C66.4282 66.144 65.9242 66.016 65.4842 65.76C65.0442 65.496 64.6962 65.132 64.4402 64.668C64.1922 64.204 64.0682 63.656 64.0682 63.024C64.0682 62.4 64.1922 61.856 64.4402 61.392C64.6882 60.92 65.0322 60.556 65.4722 60.3C65.9202 60.036 66.4362 59.904 67.0202 59.904C67.5962 59.904 68.0922 60.036 68.5082 60.3C68.9322 60.556 69.2562 60.896 69.4802 61.32C69.7042 61.744 69.8162 62.2 69.8162 62.688C69.8162 62.776 69.8122 62.864 69.8042 62.952C69.8042 63.04 69.8042 63.14 69.8042 63.252H65.0642C65.0882 63.708 65.1922 64.088 65.3762 64.392C65.5682 64.688 65.8042 64.912 66.0842 65.064C66.3722 65.216 66.6762 65.292 66.9962 65.292C67.4122 65.292 67.7602 65.196 68.0402 65.004C68.3202 64.812 68.5242 64.552 68.6522 64.224H69.6482C69.4882 64.776 69.1802 65.236 68.7242 65.604C68.2762 65.964 67.7002 66.144 66.9962 66.144ZM66.9962 60.756C66.5162 60.756 66.0882 60.904 65.7122 61.2C65.3442 61.488 65.1322 61.912 65.0762 62.472H68.8202C68.7962 61.936 68.6122 61.516 68.2682 61.212C67.9242 60.908 67.5002 60.756 66.9962 60.756ZM73.4322 66.144C72.7202 66.144 72.1282 65.964 71.6562 65.604C71.1842 65.244 70.9082 64.756 70.8282 64.14H71.8602C71.9242 64.452 72.0882 64.724 72.3522 64.956C72.6242 65.18 72.9882 65.292 73.4442 65.292C73.8682 65.292 74.1802 65.204 74.3802 65.028C74.5802 64.844 74.6802 64.628 74.6802 64.38C74.6802 64.02 74.5482 63.78 74.2842 63.66C74.0282 63.54 73.6642 63.432 73.1922 63.336C72.8722 63.272 72.5522 63.18 72.2322 63.06C71.9122 62.94 71.6442 62.772 71.4282 62.556C71.2122 62.332 71.1042 62.04 71.1042 61.68C71.1042 61.16 71.2962 60.736 71.6802 60.408C72.0722 60.072 72.6002 59.904 73.2642 59.904C73.8962 59.904 74.4122 60.064 74.8122 60.384C75.2202 60.696 75.4562 61.144 75.5202 61.728H74.5242C74.4842 61.424 74.3522 61.188 74.1282 61.02C73.9122 60.844 73.6202 60.756 73.2522 60.756C72.8922 60.756 72.6122 60.832 72.4122 60.984C72.2202 61.136 72.1242 61.336 72.1242 61.584C72.1242 61.824 72.2482 62.012 72.4962 62.148C72.7522 62.284 73.0962 62.4 73.5282 62.496C73.8962 62.576 74.2442 62.676 74.5722 62.796C74.9082 62.908 75.1802 63.08 75.3882 63.312C75.6042 63.536 75.7122 63.864 75.7122 64.296C75.7202 64.832 75.5162 65.276 75.1002 65.628C74.6922 65.972 74.1362 66.144 73.4322 66.144ZM79.2347 66C78.6907 66 78.2627 65.868 77.9507 65.604C77.6387 65.34 77.4827 64.864 77.4827 64.176V60.9H76.4507V60.048H77.4827L77.6147 58.62H78.4907V60.048H80.2427V60.9H78.4907V64.176C78.4907 64.552 78.5667 64.808 78.7187 64.944C78.8707 65.072 79.1387 65.136 79.5227 65.136H80.1467V66H79.2347ZM81.5233 66V60.048H82.4353L82.5073 60.912C82.6993 60.592 82.9553 60.344 83.2753 60.168C83.5953 59.992 83.9553 59.904 84.3553 59.904C84.8273 59.904 85.2313 60 85.5673 60.192C85.9113 60.384 86.1753 60.676 86.3593 61.068C86.5673 60.708 86.8513 60.424 87.2113 60.216C87.5793 60.008 87.9753 59.904 88.3993 59.904C89.1113 59.904 89.6793 60.12 90.1033 60.552C90.5273 60.976 90.7393 61.632 90.7393 62.52V66H89.7433V62.628C89.7433 62.012 89.6193 61.548 89.3713 61.236C89.1233 60.924 88.7673 60.768 88.3033 60.768C87.8233 60.768 87.4233 60.956 87.1033 61.332C86.7913 61.7 86.6353 62.228 86.6353 62.916V66H85.6273V62.628C85.6273 62.012 85.5033 61.548 85.2553 61.236C85.0073 60.924 84.6513 60.768 84.1873 60.768C83.7153 60.768 83.3193 60.956 82.9993 61.332C82.6873 61.7 82.5313 62.228 82.5313 62.916V66H81.5233ZM94.9337 66.144C94.3657 66.144 93.8617 66.016 93.4217 65.76C92.9817 65.496 92.6337 65.132 92.3777 64.668C92.1297 64.204 92.0057 63.656 92.0057 63.024C92.0057 62.4 92.1297 61.856 92.3777 61.392C92.6257 60.92 92.9697 60.556 93.4097 60.3C93.8577 60.036 94.3737 59.904 94.9577 59.904C95.5337 59.904 96.0297 60.036 96.4457 60.3C96.8697 60.556 97.1937 60.896 97.4177 61.32C97.6417 61.744 97.7537 62.2 97.7537 62.688C97.7537 62.776 97.7497 62.864 97.7417 62.952C97.7417 63.04 97.7417 63.14 97.7417 63.252H93.0017C93.0257 63.708 93.1297 64.088 93.3137 64.392C93.5057 64.688 93.7417 64.912 94.0217 65.064C94.3097 65.216 94.6137 65.292 94.9337 65.292C95.3497 65.292 95.6977 65.196 95.9777 65.004C96.2577 64.812 96.4617 64.552 96.5897 64.224H97.5857C97.4257 64.776 97.1177 65.236 96.6617 65.604C96.2137 65.964 95.6377 66.144 94.9337 66.144ZM94.9337 60.756C94.4537 60.756 94.0257 60.904 93.6497 61.2C93.2817 61.488 93.0697 61.912 93.0137 62.472H96.7577C96.7337 61.936 96.5497 61.516 96.2057 61.212C95.8617 60.908 95.4377 60.756 94.9337 60.756ZM99.0897 66V60.048H100.002L100.062 61.116C100.254 60.74 100.53 60.444 100.89 60.228C101.25 60.012 101.658 59.904 102.114 59.904C102.818 59.904 103.378 60.12 103.794 60.552C104.218 60.976 104.43 61.632 104.43 62.52V66H103.422V62.628C103.422 61.388 102.91 60.768 101.886 60.768C101.374 60.768 100.946 60.956 100.602 61.332C100.266 61.7 100.098 62.228 100.098 62.916V66H99.0897ZM108.309 66C107.765 66 107.337 65.868 107.025 65.604C106.713 65.34 106.557 64.864 106.557 64.176V60.9H105.525V60.048H106.557L106.689 58.62H107.565V60.048H109.317V60.9H107.565V64.176C107.565 64.552 107.641 64.808 107.793 64.944C107.945 65.072 108.213 65.136 108.597 65.136H109.221V66H108.309ZM113.773 66V60.048H114.685L114.769 61.188C114.953 60.796 115.233 60.484 115.609 60.252C115.985 60.02 116.449 59.904 117.001 59.904V60.96H116.725C116.373 60.96 116.049 61.024 115.753 61.152C115.457 61.272 115.221 61.48 115.045 61.776C114.869 62.072 114.781 62.48 114.781 63V66H113.773ZM120.586 66.144C120.018 66.144 119.514 66.016 119.074 65.76C118.634 65.496 118.286 65.132 118.03 64.668C117.782 64.204 117.658 63.656 117.658 63.024C117.658 62.4 117.782 61.856 118.03 61.392C118.278 60.92 118.622 60.556 119.062 60.3C119.51 60.036 120.026 59.904 120.61 59.904C121.186 59.904 121.682 60.036 122.098 60.3C122.522 60.556 122.846 60.896 123.07 61.32C123.294 61.744 123.406 62.2 123.406 62.688C123.406 62.776 123.402 62.864 123.394 62.952C123.394 63.04 123.394 63.14 123.394 63.252H118.654C118.678 63.708 118.782 64.088 118.966 64.392C119.158 64.688 119.394 64.912 119.674 65.064C119.962 65.216 120.266 65.292 120.586 65.292C121.002 65.292 121.35 65.196 121.63 65.004C121.91 64.812 122.114 64.552 122.242 64.224H123.238C123.078 64.776 122.77 65.236 122.314 65.604C121.866 65.964 121.29 66.144 120.586 66.144ZM120.586 60.756C120.106 60.756 119.678 60.904 119.302 61.2C118.934 61.488 118.722 61.912 118.666 62.472H122.41C122.386 61.936 122.202 61.516 121.858 61.212C121.514 60.908 121.09 60.756 120.586 60.756ZM126.895 66C126.351 66 125.923 65.868 125.611 65.604C125.299 65.34 125.143 64.864 125.143 64.176V60.9H124.111V60.048H125.143L125.275 58.62H126.151V60.048H127.903V60.9H126.151V64.176C126.151 64.552 126.227 64.808 126.379 64.944C126.531 65.072 126.799 65.136 127.183 65.136H127.807V66H126.895ZM131.355 66.144C130.651 66.144 130.091 65.932 129.675 65.508C129.259 65.076 129.051 64.416 129.051 63.528V60.048H130.059V63.42C130.059 64.66 130.567 65.28 131.583 65.28C132.103 65.28 132.531 65.096 132.867 64.728C133.211 64.352 133.383 63.82 133.383 63.132V60.048H134.391V66H133.479L133.407 64.932C133.223 65.308 132.947 65.604 132.579 65.82C132.219 66.036 131.811 66.144 131.355 66.144ZM136.051 66V60.048H136.963L137.047 61.188C137.231 60.796 137.511 60.484 137.887 60.252C138.263 60.02 138.727 59.904 139.279 59.904V60.96H139.003C138.651 60.96 138.327 61.024 138.031 61.152C137.735 61.272 137.499 61.48 137.323 61.776C137.147 62.072 137.059 62.48 137.059 63V66H136.051ZM140.41 66V60.048H141.322L141.382 61.116C141.574 60.74 141.85 60.444 142.21 60.228C142.57 60.012 142.978 59.904 143.434 59.904C144.138 59.904 144.698 60.12 145.114 60.552C145.538 60.976 145.75 61.632 145.75 62.52V66H144.742V62.628C144.742 61.388 144.23 60.768 143.206 60.768C142.694 60.768 142.266 60.956 141.922 61.332C141.586 61.7 141.418 62.228 141.418 62.916V66H140.41Z" fill="#DD3838"/>
<path d="M49.11 91V80.5H50.37L55.965 88.915V80.5H57.225V91H55.965L50.37 82.585V91H49.11ZM63.9668 91.18C62.9868 91.18 62.1268 90.955 61.3868 90.505C60.6468 90.045 60.0718 89.41 59.6618 88.6C59.2518 87.78 59.0468 86.835 59.0468 85.765C59.0468 84.695 59.2518 83.75 59.6618 82.93C60.0818 82.11 60.6718 81.47 61.4318 81.01C62.2018 80.55 63.1068 80.32 64.1468 80.32C65.3268 80.32 66.3068 80.605 67.0868 81.175C67.8768 81.745 68.3868 82.53 68.6168 83.53H67.1618C67.0218 82.9 66.6868 82.4 66.1568 82.03C65.6368 81.66 64.9668 81.475 64.1468 81.475C63.3768 81.475 62.7068 81.65 62.1368 82C61.5668 82.34 61.1218 82.83 60.8018 83.47C60.4918 84.11 60.3368 84.875 60.3368 85.765C60.3368 86.655 60.4918 87.42 60.8018 88.06C61.1118 88.7 61.5418 89.195 62.0918 89.545C62.6418 89.885 63.2818 90.055 64.0118 90.055C65.1318 90.055 65.9768 89.73 66.5468 89.08C67.1168 88.42 67.4418 87.52 67.5218 86.38H64.4918V85.39H68.8118V91H67.6568L67.5518 89.275C67.1718 89.885 66.7068 90.355 66.1568 90.685C65.6068 91.015 64.8768 91.18 63.9668 91.18ZM70.8043 91V80.5H72.0643L77.6593 88.915V80.5H78.9193V91H77.6593L72.0643 82.585V91H70.8043ZM86.1509 91V81.91L84.4559 82.285V81.415L86.5709 80.5H87.4259V91H86.1509ZM88.5622 92.785L89.4322 89.47H90.7372L89.4322 92.785H88.5622ZM95.8782 91.18C95.1582 91.18 94.5332 91.05 94.0032 90.79C93.4732 90.53 93.0482 90.175 92.7282 89.725C92.4182 89.265 92.2282 88.745 92.1582 88.165H93.3882C93.5082 88.745 93.7882 89.215 94.2282 89.575C94.6682 89.925 95.2232 90.1 95.8932 90.1C96.3932 90.1 96.8232 89.985 97.1832 89.755C97.5432 89.515 97.8182 89.195 98.0082 88.795C98.2082 88.395 98.3082 87.95 98.3082 87.46C98.3082 86.68 98.0882 86.05 97.6482 85.57C97.2082 85.09 96.6382 84.85 95.9382 84.85C95.3582 84.85 94.8632 84.98 94.4532 85.24C94.0432 85.5 93.7432 85.84 93.5532 86.26H92.3532L93.2532 80.5H98.7582V81.595H94.2282L93.6132 84.79C93.8532 84.5 94.1832 84.26 94.6032 84.07C95.0332 83.88 95.5232 83.785 96.0732 83.785C96.7632 83.785 97.3632 83.945 97.8732 84.265C98.3932 84.585 98.7982 85.02 99.0882 85.57C99.3782 86.12 99.5232 86.745 99.5232 87.445C99.5232 88.115 99.3782 88.735 99.0882 89.305C98.8082 89.875 98.3932 90.33 97.8432 90.67C97.3032 91.01 96.6482 91.18 95.8782 91.18ZM105.588 91.18C104.658 91.18 103.853 90.955 103.173 90.505C102.503 90.045 101.988 89.41 101.628 88.6C101.268 87.78 101.088 86.83 101.088 85.75C101.088 84.67 101.268 83.725 101.628 82.915C101.988 82.095 102.503 81.46 103.173 81.01C103.853 80.55 104.658 80.32 105.588 80.32C106.518 80.32 107.318 80.55 107.988 81.01C108.658 81.46 109.173 82.095 109.533 82.915C109.893 83.725 110.073 84.67 110.073 85.75C110.073 86.83 109.893 87.78 109.533 88.6C109.173 89.41 108.658 90.045 107.988 90.505C107.318 90.955 106.518 91.18 105.588 91.18ZM105.588 90.07C106.198 90.07 106.743 89.9 107.223 89.56C107.713 89.21 108.093 88.715 108.363 88.075C108.643 87.425 108.783 86.65 108.783 85.75C108.783 84.85 108.643 84.08 108.363 83.44C108.093 82.8 107.713 82.31 107.223 81.97C106.743 81.62 106.198 81.445 105.588 81.445C104.968 81.445 104.418 81.62 103.938 81.97C103.458 82.31 103.078 82.8 102.798 83.44C102.518 84.08 102.378 84.85 102.378 85.75C102.378 86.65 102.518 87.425 102.798 88.075C103.078 88.715 103.458 89.21 103.938 89.56C104.418 89.9 104.968 90.07 105.588 90.07ZM115.988 91.18C115.058 91.18 114.253 90.955 113.573 90.505C112.903 90.045 112.388 89.41 112.028 88.6C111.668 87.78 111.488 86.83 111.488 85.75C111.488 84.67 111.668 83.725 112.028 82.915C112.388 82.095 112.903 81.46 113.573 81.01C114.253 80.55 115.058 80.32 115.988 80.32C116.918 80.32 117.718 80.55 118.388 81.01C119.058 81.46 119.573 82.095 119.933 82.915C120.293 83.725 120.473 84.67 120.473 85.75C120.473 86.83 120.293 87.78 119.933 88.6C119.573 89.41 119.058 90.045 118.388 90.505C117.718 90.955 116.918 91.18 115.988 91.18ZM115.988 90.07C116.598 90.07 117.143 89.9 117.623 89.56C118.113 89.21 118.493 88.715 118.763 88.075C119.043 87.425 119.183 86.65 119.183 85.75C119.183 84.85 119.043 84.08 118.763 83.44C118.493 82.8 118.113 82.31 117.623 81.97C117.143 81.62 116.598 81.445 115.988 81.445C115.368 81.445 114.818 81.62 114.338 81.97C113.858 82.31 113.478 82.8 113.198 83.44C112.918 84.08 112.778 84.85 112.778 85.75C112.778 86.65 112.918 87.425 113.198 88.075C113.478 88.715 113.858 89.21 114.338 89.56C114.818 89.9 115.368 90.07 115.988 90.07ZM120.759 92.785L121.629 89.47H122.934L121.629 92.785H120.759ZM128.601 91.18C127.671 91.18 126.866 90.955 126.186 90.505C125.516 90.045 125.001 89.41 124.641 88.6C124.281 87.78 124.101 86.83 124.101 85.75C124.101 84.67 124.281 83.725 124.641 82.915C125.001 82.095 125.516 81.46 126.186 81.01C126.866 80.55 127.671 80.32 128.601 80.32C129.531 80.32 130.331 80.55 131.001 81.01C131.671 81.46 132.186 82.095 132.546 82.915C132.906 83.725 133.086 84.67 133.086 85.75C133.086 86.83 132.906 87.78 132.546 88.6C132.186 89.41 131.671 90.045 131.001 90.505C130.331 90.955 129.531 91.18 128.601 91.18ZM128.601 90.07C129.211 90.07 129.756 89.9 130.236 89.56C130.726 89.21 131.106 88.715 131.376 88.075C131.656 87.425 131.796 86.65 131.796 85.75C131.796 84.85 131.656 84.08 131.376 83.44C131.106 82.8 130.726 82.31 130.236 81.97C129.756 81.62 129.211 81.445 128.601 81.445C127.981 81.445 127.431 81.62 126.951 81.97C126.471 82.31 126.091 82.8 125.811 83.44C125.531 84.08 125.391 84.85 125.391 85.75C125.391 86.65 125.531 87.425 125.811 88.075C126.091 88.715 126.471 89.21 126.951 89.56C127.431 89.9 127.981 90.07 128.601 90.07ZM139.001 91.18C138.071 91.18 137.266 90.955 136.586 90.505C135.916 90.045 135.401 89.41 135.041 88.6C134.681 87.78 134.501 86.83 134.501 85.75C134.501 84.67 134.681 83.725 135.041 82.915C135.401 82.095 135.916 81.46 136.586 81.01C137.266 80.55 138.071 80.32 139.001 80.32C139.931 80.32 140.731 80.55 141.401 81.01C142.071 81.46 142.586 82.095 142.946 82.915C143.306 83.725 143.486 84.67 143.486 85.75C143.486 86.83 143.306 87.78 142.946 88.6C142.586 89.41 142.071 90.045 141.401 90.505C140.731 90.955 139.931 91.18 139.001 91.18ZM139.001 90.07C139.611 90.07 140.156 89.9 140.636 89.56C141.126 89.21 141.506 88.715 141.776 88.075C142.056 87.425 142.196 86.65 142.196 85.75C142.196 84.85 142.056 84.08 141.776 83.44C141.506 82.8 141.126 82.31 140.636 81.97C140.156 81.62 139.611 81.445 139.001 81.445C138.381 81.445 137.831 81.62 137.351 81.97C136.871 82.31 136.491 82.8 136.211 83.44C135.931 84.08 135.791 84.85 135.791 85.75C135.791 86.65 135.931 87.425 136.211 88.075C136.491 88.715 136.871 89.21 137.351 89.56C137.831 89.9 138.381 90.07 139.001 90.07ZM149.401 91.18C148.471 91.18 147.666 90.955 146.986 90.505C146.316 90.045 145.801 89.41 145.441 88.6C145.081 87.78 144.901 86.83 144.901 85.75C144.901 84.67 145.081 83.725 145.441 82.915C145.801 82.095 146.316 81.46 146.986 81.01C147.666 80.55 148.471 80.32 149.401 80.32C150.331 80.32 151.131 80.55 151.801 81.01C152.471 81.46 152.986 82.095 153.346 82.915C153.706 83.725 153.886 84.67 153.886 85.75C153.886 86.83 153.706 87.78 153.346 88.6C152.986 89.41 152.471 90.045 151.801 90.505C151.131 90.955 150.331 91.18 149.401 91.18ZM149.401 90.07C150.011 90.07 150.556 89.9 151.036 89.56C151.526 89.21 151.906 88.715 152.176 88.075C152.456 87.425 152.596 86.65 152.596 85.75C152.596 84.85 152.456 84.08 152.176 83.44C151.906 82.8 151.526 82.31 151.036 81.97C150.556 81.62 150.011 81.445 149.401 81.445C148.781 81.445 148.231 81.62 147.751 81.97C147.271 82.31 146.891 82.8 146.611 83.44C146.331 84.08 146.191 84.85 146.191 85.75C146.191 86.65 146.331 87.425 146.611 88.075C146.891 88.715 147.271 89.21 147.751 89.56C148.231 89.9 148.781 90.07 149.401 90.07Z" fill="black"/>
<g opacity="0.7">
<path d="M48.888 138V129.6H49.896V138H48.888ZM51.6171 138V132.048H52.5291L52.5891 133.116C52.7811 132.74 53.0571 132.444 53.4171 132.228C53.7771 132.012 54.1851 131.904 54.6411 131.904C55.3451 131.904 55.9051 132.12 56.3211 132.552C56.7451 132.976 56.9571 133.632 56.9571 134.52V138H55.9491V134.628C55.9491 133.388 55.4371 132.768 54.4131 132.768C53.9011 132.768 53.4731 132.956 53.1291 133.332C52.7931 133.7 52.6251 134.228 52.6251 134.916V138H51.6171ZM60.0831 138L57.8271 132.048H58.8831L60.6711 137.028L62.4711 132.048H63.5031L61.2471 138H60.0831ZM66.9962 138.144C66.4282 138.144 65.9242 138.016 65.4842 137.76C65.0442 137.496 64.6962 137.132 64.4402 136.668C64.1922 136.204 64.0682 135.656 64.0682 135.024C64.0682 134.4 64.1922 133.856 64.4402 133.392C64.6882 132.92 65.0322 132.556 65.4722 132.3C65.9202 132.036 66.4362 131.904 67.0202 131.904C67.5962 131.904 68.0922 132.036 68.5082 132.3C68.9322 132.556 69.2562 132.896 69.4802 133.32C69.7042 133.744 69.8162 134.2 69.8162 134.688C69.8162 134.776 69.8122 134.864 69.8042 134.952C69.8042 135.04 69.8042 135.14 69.8042 135.252H65.0642C65.0882 135.708 65.1922 136.088 65.3762 136.392C65.5682 136.688 65.8042 136.912 66.0842 137.064C66.3722 137.216 66.6762 137.292 66.9962 137.292C67.4122 137.292 67.7602 137.196 68.0402 137.004C68.3202 136.812 68.5242 136.552 68.6522 136.224H69.6482C69.4882 136.776 69.1802 137.236 68.7242 137.604C68.2762 137.964 67.7002 138.144 66.9962 138.144ZM66.9962 132.756C66.5162 132.756 66.0882 132.904 65.7122 133.2C65.3442 133.488 65.1322 133.912 65.0762 134.472H68.8202C68.7962 133.936 68.6122 133.516 68.2682 133.212C67.9242 132.908 67.5002 132.756 66.9962 132.756ZM73.4322 138.144C72.7202 138.144 72.1282 137.964 71.6562 137.604C71.1842 137.244 70.9082 136.756 70.8282 136.14H71.8602C71.9242 136.452 72.0882 136.724 72.3522 136.956C72.6242 137.18 72.9882 137.292 73.4442 137.292C73.8682 137.292 74.1802 137.204 74.3802 137.028C74.5802 136.844 74.6802 136.628 74.6802 136.38C74.6802 136.02 74.5482 135.78 74.2842 135.66C74.0282 135.54 73.6642 135.432 73.1922 135.336C72.8722 135.272 72.5522 135.18 72.2322 135.06C71.9122 134.94 71.6442 134.772 71.4282 134.556C71.2122 134.332 71.1042 134.04 71.1042 133.68C71.1042 133.16 71.2962 132.736 71.6802 132.408C72.0722 132.072 72.6002 131.904 73.2642 131.904C73.8962 131.904 74.4122 132.064 74.8122 132.384C75.2202 132.696 75.4562 133.144 75.5202 133.728H74.5242C74.4842 133.424 74.3522 133.188 74.1282 133.02C73.9122 132.844 73.6202 132.756 73.2522 132.756C72.8922 132.756 72.6122 132.832 72.4122 132.984C72.2202 133.136 72.1242 133.336 72.1242 133.584C72.1242 133.824 72.2482 134.012 72.4962 134.148C72.7522 134.284 73.0962 134.4 73.5282 134.496C73.8962 134.576 74.2442 134.676 74.5722 134.796C74.9082 134.908 75.1802 135.08 75.3882 135.312C75.6042 135.536 75.7122 135.864 75.7122 136.296C75.7202 136.832 75.5162 137.276 75.1002 137.628C74.6922 137.972 74.1362 138.144 73.4322 138.144ZM79.2347 138C78.6907 138 78.2627 137.868 77.9507 137.604C77.6387 137.34 77.4827 136.864 77.4827 136.176V132.9H76.4507V132.048H77.4827L77.6147 130.62H78.4907V132.048H80.2427V132.9H78.4907V136.176C78.4907 136.552 78.5667 136.808 78.7187 136.944C78.8707 137.072 79.1387 137.136 79.5227 137.136H80.1467V138H79.2347ZM81.5233 138V132.048H82.4353L82.5073 132.912C82.6993 132.592 82.9553 132.344 83.2753 132.168C83.5953 131.992 83.9553 131.904 84.3553 131.904C84.8273 131.904 85.2313 132 85.5673 132.192C85.9113 132.384 86.1753 132.676 86.3593 133.068C86.5673 132.708 86.8513 132.424 87.2113 132.216C87.5793 132.008 87.9753 131.904 88.3993 131.904C89.1113 131.904 89.6793 132.12 90.1033 132.552C90.5273 132.976 90.7393 133.632 90.7393 134.52V138H89.7433V134.628C89.7433 134.012 89.6193 133.548 89.3713 133.236C89.1233 132.924 88.7673 132.768 88.3033 132.768C87.8233 132.768 87.4233 132.956 87.1033 133.332C86.7913 133.7 86.6353 134.228 86.6353 134.916V138H85.6273V134.628C85.6273 134.012 85.5033 133.548 85.2553 133.236C85.0073 132.924 84.6513 132.768 84.1873 132.768C83.7153 132.768 83.3193 132.956 82.9993 133.332C82.6873 133.7 82.5313 134.228 82.5313 134.916V138H81.5233ZM94.9337 138.144C94.3657 138.144 93.8617 138.016 93.4217 137.76C92.9817 137.496 92.6337 137.132 92.3777 136.668C92.1297 136.204 92.0057 135.656 92.0057 135.024C92.0057 134.4 92.1297 133.856 92.3777 133.392C92.6257 132.92 92.9697 132.556 93.4097 132.3C93.8577 132.036 94.3737 131.904 94.9577 131.904C95.5337 131.904 96.0297 132.036 96.4457 132.3C96.8697 132.556 97.1937 132.896 97.4177 133.32C97.6417 133.744 97.7537 134.2 97.7537 134.688C97.7537 134.776 97.7497 134.864 97.7417 134.952C97.7417 135.04 97.7417 135.14 97.7417 135.252H93.0017C93.0257 135.708 93.1297 136.088 93.3137 136.392C93.5057 136.688 93.7417 136.912 94.0217 137.064C94.3097 137.216 94.6137 137.292 94.9337 137.292C95.3497 137.292 95.6977 137.196 95.9777 137.004C96.2577 136.812 96.4617 136.552 96.5897 136.224H97.5857C97.4257 136.776 97.1177 137.236 96.6617 137.604C96.2137 137.964 95.6377 138.144 94.9337 138.144ZM94.9337 132.756C94.4537 132.756 94.0257 132.904 93.6497 133.2C93.2817 133.488 93.0697 133.912 93.0137 134.472H96.7577C96.7337 133.936 96.5497 133.516 96.2057 133.212C95.8617 132.908 95.4377 132.756 94.9337 132.756ZM99.0897 138V132.048H100.002L100.062 133.116C100.254 132.74 100.53 132.444 100.89 132.228C101.25 132.012 101.658 131.904 102.114 131.904C102.818 131.904 103.378 132.12 103.794 132.552C104.218 132.976 104.43 133.632 104.43 134.52V138H103.422V134.628C103.422 133.388 102.91 132.768 101.886 132.768C101.374 132.768 100.946 132.956 100.602 133.332C100.266 133.7 100.098 134.228 100.098 134.916V138H99.0897ZM108.309 138C107.765 138 107.337 137.868 107.025 137.604C106.713 137.34 106.557 136.864 106.557 136.176V132.9H105.525V132.048H106.557L106.689 130.62H107.565V132.048H109.317V132.9H107.565V136.176C107.565 136.552 107.641 136.808 107.793 136.944C107.945 137.072 108.213 137.136 108.597 137.136H109.221V138H108.309ZM113.773 138V132.048H114.685L114.769 133.188C114.953 132.796 115.233 132.484 115.609 132.252C115.985 132.02 116.449 131.904 117.001 131.904V132.96H116.725C116.373 132.96 116.049 133.024 115.753 133.152C115.457 133.272 115.221 133.48 115.045 133.776C114.869 134.072 114.781 134.48 114.781 135V138H113.773ZM120.586 138.144C120.018 138.144 119.514 138.016 119.074 137.76C118.634 137.496 118.286 137.132 118.03 136.668C117.782 136.204 117.658 135.656 117.658 135.024C117.658 134.4 117.782 133.856 118.03 133.392C118.278 132.92 118.622 132.556 119.062 132.3C119.51 132.036 120.026 131.904 120.61 131.904C121.186 131.904 121.682 132.036 122.098 132.3C122.522 132.556 122.846 132.896 123.07 133.32C123.294 133.744 123.406 134.2 123.406 134.688C123.406 134.776 123.402 134.864 123.394 134.952C123.394 135.04 123.394 135.14 123.394 135.252H118.654C118.678 135.708 118.782 136.088 118.966 136.392C119.158 136.688 119.394 136.912 119.674 137.064C119.962 137.216 120.266 137.292 120.586 137.292C121.002 137.292 121.35 137.196 121.63 137.004C121.91 136.812 122.114 136.552 122.242 136.224H123.238C123.078 136.776 122.77 137.236 122.314 137.604C121.866 137.964 121.29 138.144 120.586 138.144ZM120.586 132.756C120.106 132.756 119.678 132.904 119.302 133.2C118.934 133.488 118.722 133.912 118.666 134.472H122.41C122.386 133.936 122.202 133.516 121.858 133.212C121.514 132.908 121.09 132.756 120.586 132.756ZM126.895 138C126.351 138 125.923 137.868 125.611 137.604C125.299 137.34 125.143 136.864 125.143 136.176V132.9H124.111V132.048H125.143L125.275 130.62H126.151V132.048H127.903V132.9H126.151V136.176C126.151 136.552 126.227 136.808 126.379 136.944C126.531 137.072 126.799 137.136 127.183 137.136H127.807V138H126.895ZM131.355 138.144C130.651 138.144 130.091 137.932 129.675 137.508C129.259 137.076 129.051 136.416 129.051 135.528V132.048H130.059V135.42C130.059 136.66 130.567 137.28 131.583 137.28C132.103 137.28 132.531 137.096 132.867 136.728C133.211 136.352 133.383 135.82 133.383 135.132V132.048H134.391V138H133.479L133.407 136.932C133.223 137.308 132.947 137.604 132.579 137.82C132.219 138.036 131.811 138.144 131.355 138.144ZM136.051 138V132.048H136.963L137.047 133.188C137.231 132.796 137.511 132.484 137.887 132.252C138.263 132.02 138.727 131.904 139.279 131.904V132.96H139.003C138.651 132.96 138.327 133.024 138.031 133.152C137.735 133.272 137.499 133.48 137.323 133.776C137.147 134.072 137.059 134.48 137.059 135V138H136.051ZM140.41 138V132.048H141.322L141.382 133.116C141.574 132.74 141.85 132.444 142.21 132.228C142.57 132.012 142.978 131.904 143.434 131.904C144.138 131.904 144.698 132.12 145.114 132.552C145.538 132.976 145.75 133.632 145.75 134.52V138H144.742V134.628C144.742 133.388 144.23 132.768 143.206 132.768C142.694 132.768 142.266 132.956 141.922 133.332C141.586 133.7 141.418 134.228 141.418 134.916V138H140.41Z" fill="#DD3838"/>
</g>
<path d="M48.888 160V151.6H49.896L54.372 158.332V151.6H55.38V160H54.372L49.896 153.268V160H48.888ZM60.7734 160.144C59.9894 160.144 59.3014 159.964 58.7094 159.604C58.1174 159.236 57.6574 158.728 57.3294 158.08C57.0014 157.424 56.8374 156.668 56.8374 155.812C56.8374 154.956 57.0014 154.2 57.3294 153.544C57.6654 152.888 58.1374 152.376 58.7454 152.008C59.3614 151.64 60.0854 151.456 60.9174 151.456C61.8614 151.456 62.6454 151.684 63.2694 152.14C63.9014 152.596 64.3094 153.224 64.4934 154.024H63.3294C63.2174 153.52 62.9494 153.12 62.5254 152.824C62.1094 152.528 61.5734 152.38 60.9174 152.38C60.3014 152.38 59.7654 152.52 59.3094 152.8C58.8534 153.072 58.4974 153.464 58.2414 153.976C57.9934 154.488 57.8694 155.1 57.8694 155.812C57.8694 156.524 57.9934 157.136 58.2414 157.648C58.4894 158.16 58.8334 158.556 59.2734 158.836C59.7134 159.108 60.2254 159.244 60.8094 159.244C61.7054 159.244 62.3814 158.984 62.8374 158.464C63.2934 157.936 63.5534 157.216 63.6174 156.304H61.1934V155.512H64.6494V160H63.7254L63.6414 158.62C63.3374 159.108 62.9654 159.484 62.5254 159.748C62.0854 160.012 61.5014 160.144 60.7734 160.144ZM66.2435 160V151.6H67.2515L71.7275 158.332V151.6H72.7355V160H71.7275L67.2515 153.268V160H66.2435ZM78.5207 160V152.728L77.1647 153.028V152.332L78.8567 151.6H79.5407V160H78.5207ZM80.4498 161.428L81.1458 158.776H82.1898L81.1458 161.428H80.4498ZM86.3026 160.144C85.7266 160.144 85.2266 160.04 84.8026 159.832C84.3786 159.624 84.0386 159.34 83.7826 158.98C83.5346 158.612 83.3826 158.196 83.3266 157.732H84.3106C84.4066 158.196 84.6306 158.572 84.9826 158.86C85.3346 159.14 85.7786 159.28 86.3146 159.28C86.7146 159.28 87.0586 159.188 87.3466 159.004C87.6346 158.812 87.8546 158.556 88.0066 158.236C88.1666 157.916 88.2466 157.56 88.2466 157.168C88.2466 156.544 88.0706 156.04 87.7186 155.656C87.3666 155.272 86.9106 155.08 86.3506 155.08C85.8866 155.08 85.4906 155.184 85.1626 155.392C84.8346 155.6 84.5946 155.872 84.4426 156.208H83.4826L84.2026 151.6H88.6066V152.476H84.9826L84.4906 155.032C84.6826 154.8 84.9466 154.608 85.2826 154.456C85.6266 154.304 86.0186 154.228 86.4586 154.228C87.0106 154.228 87.4906 154.356 87.8986 154.612C88.3146 154.868 88.6386 155.216 88.8706 155.656C89.1026 156.096 89.2186 156.596 89.2186 157.156C89.2186 157.692 89.1026 158.188 88.8706 158.644C88.6466 159.1 88.3146 159.464 87.8746 159.736C87.4426 160.008 86.9186 160.144 86.3026 160.144ZM94.0703 160.144C93.3263 160.144 92.6823 159.964 92.1383 159.604C91.6023 159.236 91.1903 158.728 90.9023 158.08C90.6143 157.424 90.4703 156.664 90.4703 155.8C90.4703 154.936 90.6143 154.18 90.9023 153.532C91.1903 152.876 91.6023 152.368 92.1383 152.008C92.6823 151.64 93.3263 151.456 94.0703 151.456C94.8143 151.456 95.4543 151.64 95.9903 152.008C96.5263 152.368 96.9383 152.876 97.2263 153.532C97.5143 154.18 97.6583 154.936 97.6583 155.8C97.6583 156.664 97.5143 157.424 97.2263 158.08C96.9383 158.728 96.5263 159.236 95.9903 159.604C95.4543 159.964 94.8143 160.144 94.0703 160.144ZM94.0703 159.256C94.5583 159.256 94.9943 159.12 95.3783 158.848C95.7703 158.568 96.0742 158.172 96.2903 157.66C96.5143 157.14 96.6263 156.52 96.6263 155.8C96.6263 155.08 96.5143 154.464 96.2903 153.952C96.0742 153.44 95.7703 153.048 95.3783 152.776C94.9943 152.496 94.5583 152.356 94.0703 152.356C93.5743 152.356 93.1343 152.496 92.7503 152.776C92.3663 153.048 92.0623 153.44 91.8383 153.952C91.6143 154.464 91.5023 155.08 91.5023 155.8C91.5023 156.52 91.6143 157.14 91.8383 157.66C92.0623 158.172 92.3663 158.568 92.7503 158.848C93.1343 159.12 93.5743 159.256 94.0703 159.256ZM102.391 160.144C101.647 160.144 101.003 159.964 100.459 159.604C99.9226 159.236 99.5106 158.728 99.2226 158.08C98.9346 157.424 98.7906 156.664 98.7906 155.8C98.7906 154.936 98.9346 154.18 99.2226 153.532C99.5106 152.876 99.9226 152.368 100.459 152.008C101.003 151.64 101.647 151.456 102.391 151.456C103.135 151.456 103.775 151.64 104.311 152.008C104.847 152.368 105.259 152.876 105.547 153.532C105.835 154.18 105.979 154.936 105.979 155.8C105.979 156.664 105.835 157.424 105.547 158.08C105.259 158.728 104.847 159.236 104.311 159.604C103.775 159.964 103.135 160.144 102.391 160.144ZM102.391 159.256C102.879 159.256 103.315 159.12 103.699 158.848C104.091 158.568 104.395 158.172 104.611 157.66C104.835 157.14 104.947 156.52 104.947 155.8C104.947 155.08 104.835 154.464 104.611 153.952C104.395 153.44 104.091 153.048 103.699 152.776C103.315 152.496 102.879 152.356 102.391 152.356C101.895 152.356 101.455 152.496 101.071 152.776C100.687 153.048 100.383 153.44 100.159 153.952C99.9346 154.464 99.8226 155.08 99.8226 155.8C99.8226 156.52 99.9346 157.14 100.159 157.66C100.383 158.172 100.687 158.568 101.071 158.848C101.455 159.12 101.895 159.256 102.391 159.256ZM106.208 161.428L106.904 158.776H107.948L106.904 161.428H106.208ZM112.48 160.144C111.736 160.144 111.092 159.964 110.548 159.604C110.012 159.236 109.6 158.728 109.312 158.08C109.024 157.424 108.88 156.664 108.88 155.8C108.88 154.936 109.024 154.18 109.312 153.532C109.6 152.876 110.012 152.368 110.548 152.008C111.092 151.64 111.736 151.456 112.48 151.456C113.224 151.456 113.864 151.64 114.4 152.008C114.936 152.368 115.348 152.876 115.636 153.532C115.924 154.18 116.068 154.936 116.068 155.8C116.068 156.664 115.924 157.424 115.636 158.08C115.348 158.728 114.936 159.236 114.4 159.604C113.864 159.964 113.224 160.144 112.48 160.144ZM112.48 159.256C112.968 159.256 113.404 159.12 113.788 158.848C114.18 158.568 114.484 158.172 114.7 157.66C114.924 157.14 115.036 156.52 115.036 155.8C115.036 155.08 114.924 154.464 114.7 153.952C114.484 153.44 114.18 153.048 113.788 152.776C113.404 152.496 112.968 152.356 112.48 152.356C111.984 152.356 111.544 152.496 111.16 152.776C110.776 153.048 110.472 153.44 110.248 153.952C110.024 154.464 109.912 155.08 109.912 155.8C109.912 156.52 110.024 157.14 110.248 157.66C110.472 158.172 110.776 158.568 111.16 158.848C111.544 159.12 111.984 159.256 112.48 159.256ZM120.801 160.144C120.057 160.144 119.413 159.964 118.869 159.604C118.333 159.236 117.921 158.728 117.633 158.08C117.345 157.424 117.201 156.664 117.201 155.8C117.201 154.936 117.345 154.18 117.633 153.532C117.921 152.876 118.333 152.368 118.869 152.008C119.413 151.64 120.057 151.456 120.801 151.456C121.545 151.456 122.185 151.64 122.721 152.008C123.257 152.368 123.669 152.876 123.957 153.532C124.245 154.18 124.389 154.936 124.389 155.8C124.389 156.664 124.245 157.424 123.957 158.08C123.669 158.728 123.257 159.236 122.721 159.604C122.185 159.964 121.545 160.144 120.801 160.144ZM120.801 159.256C121.289 159.256 121.725 159.12 122.109 158.848C122.501 158.568 122.805 158.172 123.021 157.66C123.245 157.14 123.357 156.52 123.357 155.8C123.357 155.08 123.245 154.464 123.021 153.952C122.805 153.44 122.501 153.048 122.109 152.776C121.725 152.496 121.289 152.356 120.801 152.356C120.305 152.356 119.865 152.496 119.481 152.776C119.097 153.048 118.793 153.44 118.569 153.952C118.345 154.464 118.233 155.08 118.233 155.8C118.233 156.52 118.345 157.14 118.569 157.66C118.793 158.172 119.097 158.568 119.481 158.848C119.865 159.12 120.305 159.256 120.801 159.256ZM129.121 160.144C128.377 160.144 127.733 159.964 127.189 159.604C126.653 159.236 126.241 158.728 125.953 158.08C125.665 157.424 125.521 156.664 125.521 155.8C125.521 154.936 125.665 154.18 125.953 153.532C126.241 152.876 126.653 152.368 127.189 152.008C127.733 151.64 128.377 151.456 129.121 151.456C129.865 151.456 130.505 151.64 131.041 152.008C131.577 152.368 131.989 152.876 132.277 153.532C132.565 154.18 132.709 154.936 132.709 155.8C132.709 156.664 132.565 157.424 132.277 158.08C131.989 158.728 131.577 159.236 131.041 159.604C130.505 159.964 129.865 160.144 129.121 160.144ZM129.121 159.256C129.609 159.256 130.045 159.12 130.429 158.848C130.821 158.568 131.125 158.172 131.341 157.66C131.565 157.14 131.677 156.52 131.677 155.8C131.677 155.08 131.565 154.464 131.341 153.952C131.125 153.44 130.821 153.048 130.429 152.776C130.045 152.496 129.609 152.356 129.121 152.356C128.625 152.356 128.185 152.496 127.801 152.776C127.417 153.048 127.113 153.44 126.889 153.952C126.665 154.464 126.553 155.08 126.553 155.8C126.553 156.52 126.665 157.14 126.889 157.66C127.113 158.172 127.417 158.568 127.801 158.848C128.185 159.12 128.625 159.256 129.121 159.256Z" fill="black"/>
<g opacity="0.7">
<path d="M210.888 138V129.6H211.896V138H210.888ZM213.617 138V132.048H214.529L214.589 133.116C214.781 132.74 215.057 132.444 215.417 132.228C215.777 132.012 216.185 131.904 216.641 131.904C217.345 131.904 217.905 132.12 218.321 132.552C218.745 132.976 218.957 133.632 218.957 134.52V138H217.949V134.628C217.949 133.388 217.437 132.768 216.413 132.768C215.901 132.768 215.473 132.956 215.129 133.332C214.793 133.7 214.625 134.228 214.625 134.916V138H213.617ZM222.083 138L219.827 132.048H220.883L222.671 137.028L224.471 132.048H225.503L223.247 138H222.083ZM228.996 138.144C228.428 138.144 227.924 138.016 227.484 137.76C227.044 137.496 226.696 137.132 226.44 136.668C226.192 136.204 226.068 135.656 226.068 135.024C226.068 134.4 226.192 133.856 226.44 133.392C226.688 132.92 227.032 132.556 227.472 132.3C227.92 132.036 228.436 131.904 229.02 131.904C229.596 131.904 230.092 132.036 230.508 132.3C230.932 132.556 231.256 132.896 231.48 133.32C231.704 133.744 231.816 134.2 231.816 134.688C231.816 134.776 231.812 134.864 231.804 134.952C231.804 135.04 231.804 135.14 231.804 135.252H227.064C227.088 135.708 227.192 136.088 227.376 136.392C227.568 136.688 227.804 136.912 228.084 137.064C228.372 137.216 228.676 137.292 228.996 137.292C229.412 137.292 229.76 137.196 230.04 137.004C230.32 136.812 230.524 136.552 230.652 136.224H231.648C231.488 136.776 231.18 137.236 230.724 137.604C230.276 137.964 229.7 138.144 228.996 138.144ZM228.996 132.756C228.516 132.756 228.088 132.904 227.712 133.2C227.344 133.488 227.132 133.912 227.076 134.472H230.82C230.796 133.936 230.612 133.516 230.268 133.212C229.924 132.908 229.5 132.756 228.996 132.756ZM235.432 138.144C234.72 138.144 234.128 137.964 233.656 137.604C233.184 137.244 232.908 136.756 232.828 136.14H233.86C233.924 136.452 234.088 136.724 234.352 136.956C234.624 137.18 234.988 137.292 235.444 137.292C235.868 137.292 236.18 137.204 236.38 137.028C236.58 136.844 236.68 136.628 236.68 136.38C236.68 136.02 236.548 135.78 236.284 135.66C236.028 135.54 235.664 135.432 235.192 135.336C234.872 135.272 234.552 135.18 234.232 135.06C233.912 134.94 233.644 134.772 233.428 134.556C233.212 134.332 233.104 134.04 233.104 133.68C233.104 133.16 233.296 132.736 233.68 132.408C234.072 132.072 234.6 131.904 235.264 131.904C235.896 131.904 236.412 132.064 236.812 132.384C237.22 132.696 237.456 133.144 237.52 133.728H236.524C236.484 133.424 236.352 133.188 236.128 133.02C235.912 132.844 235.62 132.756 235.252 132.756C234.892 132.756 234.612 132.832 234.412 132.984C234.22 133.136 234.124 133.336 234.124 133.584C234.124 133.824 234.248 134.012 234.496 134.148C234.752 134.284 235.096 134.4 235.528 134.496C235.896 134.576 236.244 134.676 236.572 134.796C236.908 134.908 237.18 135.08 237.388 135.312C237.604 135.536 237.712 135.864 237.712 136.296C237.72 136.832 237.516 137.276 237.1 137.628C236.692 137.972 236.136 138.144 235.432 138.144ZM241.235 138C240.691 138 240.263 137.868 239.951 137.604C239.639 137.34 239.483 136.864 239.483 136.176V132.9H238.451V132.048H239.483L239.615 130.62H240.491V132.048H242.243V132.9H240.491V136.176C240.491 136.552 240.567 136.808 240.719 136.944C240.871 137.072 241.139 137.136 241.523 137.136H242.147V138H241.235ZM243.523 138V132.048H244.435L244.507 132.912C244.699 132.592 244.955 132.344 245.275 132.168C245.595 131.992 245.955 131.904 246.355 131.904C246.827 131.904 247.231 132 247.567 132.192C247.911 132.384 248.175 132.676 248.359 133.068C248.567 132.708 248.851 132.424 249.211 132.216C249.579 132.008 249.975 131.904 250.399 131.904C251.111 131.904 251.679 132.12 252.103 132.552C252.527 132.976 252.739 133.632 252.739 134.52V138H251.743V134.628C251.743 134.012 251.619 133.548 251.371 133.236C251.123 132.924 250.767 132.768 250.303 132.768C249.823 132.768 249.423 132.956 249.103 133.332C248.791 133.7 248.635 134.228 248.635 134.916V138H247.627V134.628C247.627 134.012 247.503 133.548 247.255 133.236C247.007 132.924 246.651 132.768 246.187 132.768C245.715 132.768 245.319 132.956 244.999 133.332C244.687 133.7 244.531 134.228 244.531 134.916V138H243.523ZM256.934 138.144C256.366 138.144 255.862 138.016 255.422 137.76C254.982 137.496 254.634 137.132 254.378 136.668C254.13 136.204 254.006 135.656 254.006 135.024C254.006 134.4 254.13 133.856 254.378 133.392C254.626 132.92 254.97 132.556 255.41 132.3C255.858 132.036 256.374 131.904 256.958 131.904C257.534 131.904 258.03 132.036 258.446 132.3C258.87 132.556 259.194 132.896 259.418 133.32C259.642 133.744 259.754 134.2 259.754 134.688C259.754 134.776 259.75 134.864 259.742 134.952C259.742 135.04 259.742 135.14 259.742 135.252H255.002C255.026 135.708 255.13 136.088 255.314 136.392C255.506 136.688 255.742 136.912 256.022 137.064C256.31 137.216 256.614 137.292 256.934 137.292C257.35 137.292 257.698 137.196 257.978 137.004C258.258 136.812 258.462 136.552 258.59 136.224H259.586C259.426 136.776 259.118 137.236 258.662 137.604C258.214 137.964 257.638 138.144 256.934 138.144ZM256.934 132.756C256.454 132.756 256.026 132.904 255.65 133.2C255.282 133.488 255.07 133.912 255.014 134.472H258.758C258.734 133.936 258.55 133.516 258.206 133.212C257.862 132.908 257.438 132.756 256.934 132.756ZM261.09 138V132.048H262.002L262.062 133.116C262.254 132.74 262.53 132.444 262.89 132.228C263.25 132.012 263.658 131.904 264.114 131.904C264.818 131.904 265.378 132.12 265.794 132.552C266.218 132.976 266.43 133.632 266.43 134.52V138H265.422V134.628C265.422 133.388 264.91 132.768 263.886 132.768C263.374 132.768 262.946 132.956 262.602 133.332C262.266 133.7 262.098 134.228 262.098 134.916V138H261.09ZM270.309 138C269.765 138 269.337 137.868 269.025 137.604C268.713 137.34 268.557 136.864 268.557 136.176V132.9H267.525V132.048H268.557L268.689 130.62H269.565V132.048H271.317V132.9H269.565V136.176C269.565 136.552 269.641 136.808 269.793 136.944C269.945 137.072 270.213 137.136 270.597 137.136H271.221V138H270.309ZM275.773 138V132.048H276.685L276.769 133.188C276.953 132.796 277.233 132.484 277.609 132.252C277.985 132.02 278.449 131.904 279.001 131.904V132.96H278.725C278.373 132.96 278.049 133.024 277.753 133.152C277.457 133.272 277.221 133.48 277.045 133.776C276.869 134.072 276.781 134.48 276.781 135V138H275.773ZM282.586 138.144C282.018 138.144 281.514 138.016 281.074 137.76C280.634 137.496 280.286 137.132 280.03 136.668C279.782 136.204 279.658 135.656 279.658 135.024C279.658 134.4 279.782 133.856 280.03 133.392C280.278 132.92 280.622 132.556 281.062 132.3C281.51 132.036 282.026 131.904 282.61 131.904C283.186 131.904 283.682 132.036 284.098 132.3C284.522 132.556 284.846 132.896 285.07 133.32C285.294 133.744 285.406 134.2 285.406 134.688C285.406 134.776 285.402 134.864 285.394 134.952C285.394 135.04 285.394 135.14 285.394 135.252H280.654C280.678 135.708 280.782 136.088 280.966 136.392C281.158 136.688 281.394 136.912 281.674 137.064C281.962 137.216 282.266 137.292 282.586 137.292C283.002 137.292 283.35 137.196 283.63 137.004C283.91 136.812 284.114 136.552 284.242 136.224H285.238C285.078 136.776 284.77 137.236 284.314 137.604C283.866 137.964 283.29 138.144 282.586 138.144ZM282.586 132.756C282.106 132.756 281.678 132.904 281.302 133.2C280.934 133.488 280.722 133.912 280.666 134.472H284.41C284.386 133.936 284.202 133.516 283.858 133.212C283.514 132.908 283.09 132.756 282.586 132.756ZM288.895 138C288.351 138 287.923 137.868 287.611 137.604C287.299 137.34 287.143 136.864 287.143 136.176V132.9H286.111V132.048H287.143L287.275 130.62H288.151V132.048H289.903V132.9H288.151V136.176C288.151 136.552 288.227 136.808 288.379 136.944C288.531 137.072 288.799 137.136 289.183 137.136H289.807V138H288.895ZM293.355 138.144C292.651 138.144 292.091 137.932 291.675 137.508C291.259 137.076 291.051 136.416 291.051 135.528V132.048H292.059V135.42C292.059 136.66 292.567 137.28 293.583 137.28C294.103 137.28 294.531 137.096 294.867 136.728C295.211 136.352 295.383 135.82 295.383 135.132V132.048H296.391V138H295.479L295.407 136.932C295.223 137.308 294.947 137.604 294.579 137.82C294.219 138.036 293.811 138.144 293.355 138.144ZM298.051 138V132.048H298.963L299.047 133.188C299.231 132.796 299.511 132.484 299.887 132.252C300.263 132.02 300.727 131.904 301.279 131.904V132.96H301.003C300.651 132.96 300.327 133.024 300.031 133.152C299.735 133.272 299.499 133.48 299.323 133.776C299.147 134.072 299.059 134.48 299.059 135V138H298.051ZM302.41 138V132.048H303.322L303.382 133.116C303.574 132.74 303.85 132.444 304.21 132.228C304.57 132.012 304.978 131.904 305.434 131.904C306.138 131.904 306.698 132.12 307.114 132.552C307.538 132.976 307.75 133.632 307.75 134.52V138H306.742V134.628C306.742 133.388 306.23 132.768 305.206 132.768C304.694 132.768 304.266 132.956 303.922 133.332C303.586 133.7 303.418 134.228 303.418 134.916V138H302.41Z" fill="#DD3838"/>
</g>
<path d="M210.888 160V151.6H211.896L216.372 158.332V151.6H217.38V160H216.372L211.896 153.268V160H210.888ZM222.773 160.144C221.989 160.144 221.301 159.964 220.709 159.604C220.117 159.236 219.657 158.728 219.329 158.08C219.001 157.424 218.837 156.668 218.837 155.812C218.837 154.956 219.001 154.2 219.329 153.544C219.665 152.888 220.137 152.376 220.745 152.008C221.361 151.64 222.085 151.456 222.917 151.456C223.861 151.456 224.645 151.684 225.269 152.14C225.901 152.596 226.309 153.224 226.493 154.024H225.329C225.217 153.52 224.949 153.12 224.525 152.824C224.109 152.528 223.573 152.38 222.917 152.38C222.301 152.38 221.765 152.52 221.309 152.8C220.853 153.072 220.497 153.464 220.241 153.976C219.993 154.488 219.869 155.1 219.869 155.812C219.869 156.524 219.993 157.136 220.241 157.648C220.489 158.16 220.833 158.556 221.273 158.836C221.713 159.108 222.225 159.244 222.809 159.244C223.705 159.244 224.381 158.984 224.837 158.464C225.293 157.936 225.553 157.216 225.617 156.304H223.193V155.512H226.649V160H225.725L225.641 158.62C225.337 159.108 224.965 159.484 224.525 159.748C224.085 160.012 223.501 160.144 222.773 160.144ZM228.243 160V151.6H229.251L233.727 158.332V151.6H234.735V160H233.727L229.251 153.268V160H228.243ZM240.521 160V152.728L239.165 153.028V152.332L240.857 151.6H241.541V160H240.521ZM242.45 161.428L243.146 158.776H244.19L243.146 161.428H242.45ZM248.303 160.144C247.727 160.144 247.227 160.04 246.803 159.832C246.379 159.624 246.039 159.34 245.783 158.98C245.535 158.612 245.383 158.196 245.327 157.732H246.311C246.407 158.196 246.631 158.572 246.983 158.86C247.335 159.14 247.779 159.28 248.315 159.28C248.715 159.28 249.059 159.188 249.347 159.004C249.635 158.812 249.855 158.556 250.007 158.236C250.167 157.916 250.247 157.56 250.247 157.168C250.247 156.544 250.071 156.04 249.719 155.656C249.367 155.272 248.911 155.08 248.351 155.08C247.887 155.08 247.491 155.184 247.163 155.392C246.835 155.6 246.595 155.872 246.443 156.208H245.483L246.203 151.6H250.607V152.476H246.983L246.491 155.032C246.683 154.8 246.947 154.608 247.283 154.456C247.627 154.304 248.019 154.228 248.459 154.228C249.011 154.228 249.491 154.356 249.899 154.612C250.315 154.868 250.639 155.216 250.871 155.656C251.103 156.096 251.219 156.596 251.219 157.156C251.219 157.692 251.103 158.188 250.871 158.644C250.647 159.1 250.315 159.464 249.875 159.736C249.443 160.008 248.919 160.144 248.303 160.144ZM256.07 160.144C255.326 160.144 254.682 159.964 254.138 159.604C253.602 159.236 253.19 158.728 252.902 158.08C252.614 157.424 252.47 156.664 252.47 155.8C252.47 154.936 252.614 154.18 252.902 153.532C253.19 152.876 253.602 152.368 254.138 152.008C254.682 151.64 255.326 151.456 256.07 151.456C256.814 151.456 257.454 151.64 257.99 152.008C258.526 152.368 258.938 152.876 259.226 153.532C259.514 154.18 259.658 154.936 259.658 155.8C259.658 156.664 259.514 157.424 259.226 158.08C258.938 158.728 258.526 159.236 257.99 159.604C257.454 159.964 256.814 160.144 256.07 160.144ZM256.07 159.256C256.558 159.256 256.994 159.12 257.378 158.848C257.77 158.568 258.074 158.172 258.29 157.66C258.514 157.14 258.626 156.52 258.626 155.8C258.626 155.08 258.514 154.464 258.29 153.952C258.074 153.44 257.77 153.048 257.378 152.776C256.994 152.496 256.558 152.356 256.07 152.356C255.574 152.356 255.134 152.496 254.75 152.776C254.366 153.048 254.062 153.44 253.838 153.952C253.614 154.464 253.502 155.08 253.502 155.8C253.502 156.52 253.614 157.14 253.838 157.66C254.062 158.172 254.366 158.568 254.75 158.848C255.134 159.12 255.574 159.256 256.07 159.256ZM264.391 160.144C263.647 160.144 263.003 159.964 262.459 159.604C261.923 159.236 261.511 158.728 261.223 158.08C260.935 157.424 260.791 156.664 260.791 155.8C260.791 154.936 260.935 154.18 261.223 153.532C261.511 152.876 261.923 152.368 262.459 152.008C263.003 151.64 263.647 151.456 264.391 151.456C265.135 151.456 265.775 151.64 266.311 152.008C266.847 152.368 267.259 152.876 267.547 153.532C267.835 154.18 267.979 154.936 267.979 155.8C267.979 156.664 267.835 157.424 267.547 158.08C267.259 158.728 266.847 159.236 266.311 159.604C265.775 159.964 265.135 160.144 264.391 160.144ZM264.391 159.256C264.879 159.256 265.315 159.12 265.699 158.848C266.091 158.568 266.395 158.172 266.611 157.66C266.835 157.14 266.947 156.52 266.947 155.8C266.947 155.08 266.835 154.464 266.611 153.952C266.395 153.44 266.091 153.048 265.699 152.776C265.315 152.496 264.879 152.356 264.391 152.356C263.895 152.356 263.455 152.496 263.071 152.776C262.687 153.048 262.383 153.44 262.159 153.952C261.935 154.464 261.823 155.08 261.823 155.8C261.823 156.52 261.935 157.14 262.159 157.66C262.383 158.172 262.687 158.568 263.071 158.848C263.455 159.12 263.895 159.256 264.391 159.256ZM268.208 161.428L268.904 158.776H269.948L268.904 161.428H268.208ZM274.48 160.144C273.736 160.144 273.092 159.964 272.548 159.604C272.012 159.236 271.6 158.728 271.312 158.08C271.024 157.424 270.88 156.664 270.88 155.8C270.88 154.936 271.024 154.18 271.312 153.532C271.6 152.876 272.012 152.368 272.548 152.008C273.092 151.64 273.736 151.456 274.48 151.456C275.224 151.456 275.864 151.64 276.4 152.008C276.936 152.368 277.348 152.876 277.636 153.532C277.924 154.18 278.068 154.936 278.068 155.8C278.068 156.664 277.924 157.424 277.636 158.08C277.348 158.728 276.936 159.236 276.4 159.604C275.864 159.964 275.224 160.144 274.48 160.144ZM274.48 159.256C274.968 159.256 275.404 159.12 275.788 158.848C276.18 158.568 276.484 158.172 276.7 157.66C276.924 157.14 277.036 156.52 277.036 155.8C277.036 155.08 276.924 154.464 276.7 153.952C276.484 153.44 276.18 153.048 275.788 152.776C275.404 152.496 274.968 152.356 274.48 152.356C273.984 152.356 273.544 152.496 273.16 152.776C272.776 153.048 272.472 153.44 272.248 153.952C272.024 154.464 271.912 155.08 271.912 155.8C271.912 156.52 272.024 157.14 272.248 157.66C272.472 158.172 272.776 158.568 273.16 158.848C273.544 159.12 273.984 159.256 274.48 159.256ZM282.801 160.144C282.057 160.144 281.413 159.964 280.869 159.604C280.333 159.236 279.921 158.728 279.633 158.08C279.345 157.424 279.201 156.664 279.201 155.8C279.201 154.936 279.345 154.18 279.633 153.532C279.921 152.876 280.333 152.368 280.869 152.008C281.413 151.64 282.057 151.456 282.801 151.456C283.545 151.456 284.185 151.64 284.721 152.008C285.257 152.368 285.669 152.876 285.957 153.532C286.245 154.18 286.389 154.936 286.389 155.8C286.389 156.664 286.245 157.424 285.957 158.08C285.669 158.728 285.257 159.236 284.721 159.604C284.185 159.964 283.545 160.144 282.801 160.144ZM282.801 159.256C283.289 159.256 283.725 159.12 284.109 158.848C284.501 158.568 284.805 158.172 285.021 157.66C285.245 157.14 285.357 156.52 285.357 155.8C285.357 155.08 285.245 154.464 285.021 153.952C284.805 153.44 284.501 153.048 284.109 152.776C283.725 152.496 283.289 152.356 282.801 152.356C282.305 152.356 281.865 152.496 281.481 152.776C281.097 153.048 280.793 153.44 280.569 153.952C280.345 154.464 280.233 155.08 280.233 155.8C280.233 156.52 280.345 157.14 280.569 157.66C280.793 158.172 281.097 158.568 281.481 158.848C281.865 159.12 282.305 159.256 282.801 159.256ZM291.121 160.144C290.377 160.144 289.733 159.964 289.189 159.604C288.653 159.236 288.241 158.728 287.953 158.08C287.665 157.424 287.521 156.664 287.521 155.8C287.521 154.936 287.665 154.18 287.953 153.532C288.241 152.876 288.653 152.368 289.189 152.008C289.733 151.64 290.377 151.456 291.121 151.456C291.865 151.456 292.505 151.64 293.041 152.008C293.577 152.368 293.989 152.876 294.277 153.532C294.565 154.18 294.709 154.936 294.709 155.8C294.709 156.664 294.565 157.424 294.277 158.08C293.989 158.728 293.577 159.236 293.041 159.604C292.505 159.964 291.865 160.144 291.121 160.144ZM291.121 159.256C291.609 159.256 292.045 159.12 292.429 158.848C292.821 158.568 293.125 158.172 293.341 157.66C293.565 157.14 293.677 156.52 293.677 155.8C293.677 155.08 293.565 154.464 293.341 153.952C293.125 153.44 292.821 153.048 292.429 152.776C292.045 152.496 291.609 152.356 291.121 152.356C290.625 152.356 290.185 152.496 289.801 152.776C289.417 153.048 289.113 153.44 288.889 153.952C288.665 154.464 288.553 155.08 288.553 155.8C288.553 156.52 288.665 157.14 288.889 157.66C289.113 158.172 289.417 158.568 289.801 158.848C290.185 159.12 290.625 159.256 291.121 159.256Z" fill="black"/>
<g opacity="0.7">
<path d="M372.888 138V129.6H373.896V138H372.888ZM375.617 138V132.048H376.529L376.589 133.116C376.781 132.74 377.057 132.444 377.417 132.228C377.777 132.012 378.185 131.904 378.641 131.904C379.345 131.904 379.905 132.12 380.321 132.552C380.745 132.976 380.957 133.632 380.957 134.52V138H379.949V134.628C379.949 133.388 379.437 132.768 378.413 132.768C377.901 132.768 377.473 132.956 377.129 133.332C376.793 133.7 376.625 134.228 376.625 134.916V138H375.617ZM384.083 138L381.827 132.048H382.883L384.671 137.028L386.471 132.048H387.503L385.247 138H384.083ZM390.996 138.144C390.428 138.144 389.924 138.016 389.484 137.76C389.044 137.496 388.696 137.132 388.44 136.668C388.192 136.204 388.068 135.656 388.068 135.024C388.068 134.4 388.192 133.856 388.44 133.392C388.688 132.92 389.032 132.556 389.472 132.3C389.92 132.036 390.436 131.904 391.02 131.904C391.596 131.904 392.092 132.036 392.508 132.3C392.932 132.556 393.256 132.896 393.48 133.32C393.704 133.744 393.816 134.2 393.816 134.688C393.816 134.776 393.812 134.864 393.804 134.952C393.804 135.04 393.804 135.14 393.804 135.252H389.064C389.088 135.708 389.192 136.088 389.376 136.392C389.568 136.688 389.804 136.912 390.084 137.064C390.372 137.216 390.676 137.292 390.996 137.292C391.412 137.292 391.76 137.196 392.04 137.004C392.32 136.812 392.524 136.552 392.652 136.224H393.648C393.488 136.776 393.18 137.236 392.724 137.604C392.276 137.964 391.7 138.144 390.996 138.144ZM390.996 132.756C390.516 132.756 390.088 132.904 389.712 133.2C389.344 133.488 389.132 133.912 389.076 134.472H392.82C392.796 133.936 392.612 133.516 392.268 133.212C391.924 132.908 391.5 132.756 390.996 132.756ZM397.432 138.144C396.72 138.144 396.128 137.964 395.656 137.604C395.184 137.244 394.908 136.756 394.828 136.14H395.86C395.924 136.452 396.088 136.724 396.352 136.956C396.624 137.18 396.988 137.292 397.444 137.292C397.868 137.292 398.18 137.204 398.38 137.028C398.58 136.844 398.68 136.628 398.68 136.38C398.68 136.02 398.548 135.78 398.284 135.66C398.028 135.54 397.664 135.432 397.192 135.336C396.872 135.272 396.552 135.18 396.232 135.06C395.912 134.94 395.644 134.772 395.428 134.556C395.212 134.332 395.104 134.04 395.104 133.68C395.104 133.16 395.296 132.736 395.68 132.408C396.072 132.072 396.6 131.904 397.264 131.904C397.896 131.904 398.412 132.064 398.812 132.384C399.22 132.696 399.456 133.144 399.52 133.728H398.524C398.484 133.424 398.352 133.188 398.128 133.02C397.912 132.844 397.62 132.756 397.252 132.756C396.892 132.756 396.612 132.832 396.412 132.984C396.22 133.136 396.124 133.336 396.124 133.584C396.124 133.824 396.248 134.012 396.496 134.148C396.752 134.284 397.096 134.4 397.528 134.496C397.896 134.576 398.244 134.676 398.572 134.796C398.908 134.908 399.18 135.08 399.388 135.312C399.604 135.536 399.712 135.864 399.712 136.296C399.72 136.832 399.516 137.276 399.1 137.628C398.692 137.972 398.136 138.144 397.432 138.144ZM403.235 138C402.691 138 402.263 137.868 401.951 137.604C401.639 137.34 401.483 136.864 401.483 136.176V132.9H400.451V132.048H401.483L401.615 130.62H402.491V132.048H404.243V132.9H402.491V136.176C402.491 136.552 402.567 136.808 402.719 136.944C402.871 137.072 403.139 137.136 403.523 137.136H404.147V138H403.235ZM405.523 138V132.048H406.435L406.507 132.912C406.699 132.592 406.955 132.344 407.275 132.168C407.595 131.992 407.955 131.904 408.355 131.904C408.827 131.904 409.231 132 409.567 132.192C409.911 132.384 410.175 132.676 410.359 133.068C410.567 132.708 410.851 132.424 411.211 132.216C411.579 132.008 411.975 131.904 412.399 131.904C413.111 131.904 413.679 132.12 414.103 132.552C414.527 132.976 414.739 133.632 414.739 134.52V138H413.743V134.628C413.743 134.012 413.619 133.548 413.371 133.236C413.123 132.924 412.767 132.768 412.303 132.768C411.823 132.768 411.423 132.956 411.103 133.332C410.791 133.7 410.635 134.228 410.635 134.916V138H409.627V134.628C409.627 134.012 409.503 133.548 409.255 133.236C409.007 132.924 408.651 132.768 408.187 132.768C407.715 132.768 407.319 132.956 406.999 133.332C406.687 133.7 406.531 134.228 406.531 134.916V138H405.523ZM418.934 138.144C418.366 138.144 417.862 138.016 417.422 137.76C416.982 137.496 416.634 137.132 416.378 136.668C416.13 136.204 416.006 135.656 416.006 135.024C416.006 134.4 416.13 133.856 416.378 133.392C416.626 132.92 416.97 132.556 417.41 132.3C417.858 132.036 418.374 131.904 418.958 131.904C419.534 131.904 420.03 132.036 420.446 132.3C420.87 132.556 421.194 132.896 421.418 133.32C421.642 133.744 421.754 134.2 421.754 134.688C421.754 134.776 421.75 134.864 421.742 134.952C421.742 135.04 421.742 135.14 421.742 135.252H417.002C417.026 135.708 417.13 136.088 417.314 136.392C417.506 136.688 417.742 136.912 418.022 137.064C418.31 137.216 418.614 137.292 418.934 137.292C419.35 137.292 419.698 137.196 419.978 137.004C420.258 136.812 420.462 136.552 420.59 136.224H421.586C421.426 136.776 421.118 137.236 420.662 137.604C420.214 137.964 419.638 138.144 418.934 138.144ZM418.934 132.756C418.454 132.756 418.026 132.904 417.65 133.2C417.282 133.488 417.07 133.912 417.014 134.472H420.758C420.734 133.936 420.55 133.516 420.206 133.212C419.862 132.908 419.438 132.756 418.934 132.756ZM423.09 138V132.048H424.002L424.062 133.116C424.254 132.74 424.53 132.444 424.89 132.228C425.25 132.012 425.658 131.904 426.114 131.904C426.818 131.904 427.378 132.12 427.794 132.552C428.218 132.976 428.43 133.632 428.43 134.52V138H427.422V134.628C427.422 133.388 426.91 132.768 425.886 132.768C425.374 132.768 424.946 132.956 424.602 133.332C424.266 133.7 424.098 134.228 424.098 134.916V138H423.09ZM432.309 138C431.765 138 431.337 137.868 431.025 137.604C430.713 137.34 430.557 136.864 430.557 136.176V132.9H429.525V132.048H430.557L430.689 130.62H431.565V132.048H433.317V132.9H431.565V136.176C431.565 136.552 431.641 136.808 431.793 136.944C431.945 137.072 432.213 137.136 432.597 137.136H433.221V138H432.309ZM437.773 138V132.048H438.685L438.769 133.188C438.953 132.796 439.233 132.484 439.609 132.252C439.985 132.02 440.449 131.904 441.001 131.904V132.96H440.725C440.373 132.96 440.049 133.024 439.753 133.152C439.457 133.272 439.221 133.48 439.045 133.776C438.869 134.072 438.781 134.48 438.781 135V138H437.773ZM444.586 138.144C444.018 138.144 443.514 138.016 443.074 137.76C442.634 137.496 442.286 137.132 442.03 136.668C441.782 136.204 441.658 135.656 441.658 135.024C441.658 134.4 441.782 133.856 442.03 133.392C442.278 132.92 442.622 132.556 443.062 132.3C443.51 132.036 444.026 131.904 444.61 131.904C445.186 131.904 445.682 132.036 446.098 132.3C446.522 132.556 446.846 132.896 447.07 133.32C447.294 133.744 447.406 134.2 447.406 134.688C447.406 134.776 447.402 134.864 447.394 134.952C447.394 135.04 447.394 135.14 447.394 135.252H442.654C442.678 135.708 442.782 136.088 442.966 136.392C443.158 136.688 443.394 136.912 443.674 137.064C443.962 137.216 444.266 137.292 444.586 137.292C445.002 137.292 445.35 137.196 445.63 137.004C445.91 136.812 446.114 136.552 446.242 136.224H447.238C447.078 136.776 446.77 137.236 446.314 137.604C445.866 137.964 445.29 138.144 444.586 138.144ZM444.586 132.756C444.106 132.756 443.678 132.904 443.302 133.2C442.934 133.488 442.722 133.912 442.666 134.472H446.41C446.386 133.936 446.202 133.516 445.858 133.212C445.514 132.908 445.09 132.756 444.586 132.756ZM450.895 138C450.351 138 449.923 137.868 449.611 137.604C449.299 137.34 449.143 136.864 449.143 136.176V132.9H448.111V132.048H449.143L449.275 130.62H450.151V132.048H451.903V132.9H450.151V136.176C450.151 136.552 450.227 136.808 450.379 136.944C450.531 137.072 450.799 137.136 451.183 137.136H451.807V138H450.895ZM455.355 138.144C454.651 138.144 454.091 137.932 453.675 137.508C453.259 137.076 453.051 136.416 453.051 135.528V132.048H454.059V135.42C454.059 136.66 454.567 137.28 455.583 137.28C456.103 137.28 456.531 137.096 456.867 136.728C457.211 136.352 457.383 135.82 457.383 135.132V132.048H458.391V138H457.479L457.407 136.932C457.223 137.308 456.947 137.604 456.579 137.82C456.219 138.036 455.811 138.144 455.355 138.144ZM460.051 138V132.048H460.963L461.047 133.188C461.231 132.796 461.511 132.484 461.887 132.252C462.263 132.02 462.727 131.904 463.279 131.904V132.96H463.003C462.651 132.96 462.327 133.024 462.031 133.152C461.735 133.272 461.499 133.48 461.323 133.776C461.147 134.072 461.059 134.48 461.059 135V138H460.051ZM464.41 138V132.048H465.322L465.382 133.116C465.574 132.74 465.85 132.444 466.21 132.228C466.57 132.012 466.978 131.904 467.434 131.904C468.138 131.904 468.698 132.12 469.114 132.552C469.538 132.976 469.75 133.632 469.75 134.52V138H468.742V134.628C468.742 133.388 468.23 132.768 467.206 132.768C466.694 132.768 466.266 132.956 465.922 133.332C465.586 133.7 465.418 134.228 465.418 134.916V138H464.41Z" fill="#DD3838"/>
</g>
<path d="M372.888 160V151.6H373.896L378.372 158.332V151.6H379.38V160H378.372L373.896 153.268V160H372.888ZM384.773 160.144C383.989 160.144 383.301 159.964 382.709 159.604C382.117 159.236 381.657 158.728 381.329 158.08C381.001 157.424 380.837 156.668 380.837 155.812C380.837 154.956 381.001 154.2 381.329 153.544C381.665 152.888 382.137 152.376 382.745 152.008C383.361 151.64 384.085 151.456 384.917 151.456C385.861 151.456 386.645 151.684 387.269 152.14C387.901 152.596 388.309 153.224 388.493 154.024H387.329C387.217 153.52 386.949 153.12 386.525 152.824C386.109 152.528 385.573 152.38 384.917 152.38C384.301 152.38 383.765 152.52 383.309 152.8C382.853 153.072 382.497 153.464 382.241 153.976C381.993 154.488 381.869 155.1 381.869 155.812C381.869 156.524 381.993 157.136 382.241 157.648C382.489 158.16 382.833 158.556 383.273 158.836C383.713 159.108 384.225 159.244 384.809 159.244C385.705 159.244 386.381 158.984 386.837 158.464C387.293 157.936 387.553 157.216 387.617 156.304H385.193V155.512H388.649V160H387.725L387.641 158.62C387.337 159.108 386.965 159.484 386.525 159.748C386.085 160.012 385.501 160.144 384.773 160.144ZM390.243 160V151.6H391.251L395.727 158.332V151.6H396.735V160H395.727L391.251 153.268V160H390.243ZM402.521 160V152.728L401.165 153.028V152.332L402.857 151.6H403.541V160H402.521ZM404.45 161.428L405.146 158.776H406.19L405.146 161.428H404.45ZM410.303 160.144C409.727 160.144 409.227 160.04 408.803 159.832C408.379 159.624 408.039 159.34 407.783 158.98C407.535 158.612 407.383 158.196 407.327 157.732H408.311C408.407 158.196 408.631 158.572 408.983 158.86C409.335 159.14 409.779 159.28 410.315 159.28C410.715 159.28 411.059 159.188 411.347 159.004C411.635 158.812 411.855 158.556 412.007 158.236C412.167 157.916 412.247 157.56 412.247 157.168C412.247 156.544 412.071 156.04 411.719 155.656C411.367 155.272 410.911 155.08 410.351 155.08C409.887 155.08 409.491 155.184 409.163 155.392C408.835 155.6 408.595 155.872 408.443 156.208H407.483L408.203 151.6H412.607V152.476H408.983L408.491 155.032C408.683 154.8 408.947 154.608 409.283 154.456C409.627 154.304 410.019 154.228 410.459 154.228C411.011 154.228 411.491 154.356 411.899 154.612C412.315 154.868 412.639 155.216 412.871 155.656C413.103 156.096 413.219 156.596 413.219 157.156C413.219 157.692 413.103 158.188 412.871 158.644C412.647 159.1 412.315 159.464 411.875 159.736C411.443 160.008 410.919 160.144 410.303 160.144ZM418.07 160.144C417.326 160.144 416.682 159.964 416.138 159.604C415.602 159.236 415.19 158.728 414.902 158.08C414.614 157.424 414.47 156.664 414.47 155.8C414.47 154.936 414.614 154.18 414.902 153.532C415.19 152.876 415.602 152.368 416.138 152.008C416.682 151.64 417.326 151.456 418.07 151.456C418.814 151.456 419.454 151.64 419.99 152.008C420.526 152.368 420.938 152.876 421.226 153.532C421.514 154.18 421.658 154.936 421.658 155.8C421.658 156.664 421.514 157.424 421.226 158.08C420.938 158.728 420.526 159.236 419.99 159.604C419.454 159.964 418.814 160.144 418.07 160.144ZM418.07 159.256C418.558 159.256 418.994 159.12 419.378 158.848C419.77 158.568 420.074 158.172 420.29 157.66C420.514 157.14 420.626 156.52 420.626 155.8C420.626 155.08 420.514 154.464 420.29 153.952C420.074 153.44 419.77 153.048 419.378 152.776C418.994 152.496 418.558 152.356 418.07 152.356C417.574 152.356 417.134 152.496 416.75 152.776C416.366 153.048 416.062 153.44 415.838 153.952C415.614 154.464 415.502 155.08 415.502 155.8C415.502 156.52 415.614 157.14 415.838 157.66C416.062 158.172 416.366 158.568 416.75 158.848C417.134 159.12 417.574 159.256 418.07 159.256ZM426.391 160.144C425.647 160.144 425.003 159.964 424.459 159.604C423.923 159.236 423.511 158.728 423.223 158.08C422.935 157.424 422.791 156.664 422.791 155.8C422.791 154.936 422.935 154.18 423.223 153.532C423.511 152.876 423.923 152.368 424.459 152.008C425.003 151.64 425.647 151.456 426.391 151.456C427.135 151.456 427.775 151.64 428.311 152.008C428.847 152.368 429.259 152.876 429.547 153.532C429.835 154.18 429.979 154.936 429.979 155.8C429.979 156.664 429.835 157.424 429.547 158.08C429.259 158.728 428.847 159.236 428.311 159.604C427.775 159.964 427.135 160.144 426.391 160.144ZM426.391 159.256C426.879 159.256 427.315 159.12 427.699 158.848C428.091 158.568 428.395 158.172 428.611 157.66C428.835 157.14 428.947 156.52 428.947 155.8C428.947 155.08 428.835 154.464 428.611 153.952C428.395 153.44 428.091 153.048 427.699 152.776C427.315 152.496 426.879 152.356 426.391 152.356C425.895 152.356 425.455 152.496 425.071 152.776C424.687 153.048 424.383 153.44 424.159 153.952C423.935 154.464 423.823 155.08 423.823 155.8C423.823 156.52 423.935 157.14 424.159 157.66C424.383 158.172 424.687 158.568 425.071 158.848C425.455 159.12 425.895 159.256 426.391 159.256ZM430.208 161.428L430.904 158.776H431.948L430.904 161.428H430.208ZM436.48 160.144C435.736 160.144 435.092 159.964 434.548 159.604C434.012 159.236 433.6 158.728 433.312 158.08C433.024 157.424 432.88 156.664 432.88 155.8C432.88 154.936 433.024 154.18 433.312 153.532C433.6 152.876 434.012 152.368 434.548 152.008C435.092 151.64 435.736 151.456 436.48 151.456C437.224 151.456 437.864 151.64 438.4 152.008C438.936 152.368 439.348 152.876 439.636 153.532C439.924 154.18 440.068 154.936 440.068 155.8C440.068 156.664 439.924 157.424 439.636 158.08C439.348 158.728 438.936 159.236 438.4 159.604C437.864 159.964 437.224 160.144 436.48 160.144ZM436.48 159.256C436.968 159.256 437.404 159.12 437.788 158.848C438.18 158.568 438.484 158.172 438.7 157.66C438.924 157.14 439.036 156.52 439.036 155.8C439.036 155.08 438.924 154.464 438.7 153.952C438.484 153.44 438.18 153.048 437.788 152.776C437.404 152.496 436.968 152.356 436.48 152.356C435.984 152.356 435.544 152.496 435.16 152.776C434.776 153.048 434.472 153.44 434.248 153.952C434.024 154.464 433.912 155.08 433.912 155.8C433.912 156.52 434.024 157.14 434.248 157.66C434.472 158.172 434.776 158.568 435.16 158.848C435.544 159.12 435.984 159.256 436.48 159.256ZM444.801 160.144C444.057 160.144 443.413 159.964 442.869 159.604C442.333 159.236 441.921 158.728 441.633 158.08C441.345 157.424 441.201 156.664 441.201 155.8C441.201 154.936 441.345 154.18 441.633 153.532C441.921 152.876 442.333 152.368 442.869 152.008C443.413 151.64 444.057 151.456 444.801 151.456C445.545 151.456 446.185 151.64 446.721 152.008C447.257 152.368 447.669 152.876 447.957 153.532C448.245 154.18 448.389 154.936 448.389 155.8C448.389 156.664 448.245 157.424 447.957 158.08C447.669 158.728 447.257 159.236 446.721 159.604C446.185 159.964 445.545 160.144 444.801 160.144ZM444.801 159.256C445.289 159.256 445.725 159.12 446.109 158.848C446.501 158.568 446.805 158.172 447.021 157.66C447.245 157.14 447.357 156.52 447.357 155.8C447.357 155.08 447.245 154.464 447.021 153.952C446.805 153.44 446.501 153.048 446.109 152.776C445.725 152.496 445.289 152.356 444.801 152.356C444.305 152.356 443.865 152.496 443.481 152.776C443.097 153.048 442.793 153.44 442.569 153.952C442.345 154.464 442.233 155.08 442.233 155.8C442.233 156.52 442.345 157.14 442.569 157.66C442.793 158.172 443.097 158.568 443.481 158.848C443.865 159.12 444.305 159.256 444.801 159.256ZM453.121 160.144C452.377 160.144 451.733 159.964 451.189 159.604C450.653 159.236 450.241 158.728 449.953 158.08C449.665 157.424 449.521 156.664 449.521 155.8C449.521 154.936 449.665 154.18 449.953 153.532C450.241 152.876 450.653 152.368 451.189 152.008C451.733 151.64 452.377 151.456 453.121 151.456C453.865 151.456 454.505 151.64 455.041 152.008C455.577 152.368 455.989 152.876 456.277 153.532C456.565 154.18 456.709 154.936 456.709 155.8C456.709 156.664 456.565 157.424 456.277 158.08C455.989 158.728 455.577 159.236 455.041 159.604C454.505 159.964 453.865 160.144 453.121 160.144ZM453.121 159.256C453.609 159.256 454.045 159.12 454.429 158.848C454.821 158.568 455.125 158.172 455.341 157.66C455.565 157.14 455.677 156.52 455.677 155.8C455.677 155.08 455.565 154.464 455.341 153.952C455.125 153.44 454.821 153.048 454.429 152.776C454.045 152.496 453.609 152.356 453.121 152.356C452.625 152.356 452.185 152.496 451.801 152.776C451.417 153.048 451.113 153.44 450.889 153.952C450.665 154.464 450.553 155.08 450.553 155.8C450.553 156.52 450.665 157.14 450.889 157.66C451.113 158.172 451.417 158.568 451.801 158.848C452.185 159.12 452.625 159.256 453.121 159.256Z" fill="black"/>
<line x1="48" y1="107.5" x2="472" y2="107.5" stroke="#CCCCCC" stroke-opacity="0.4"/>
<line x1="48.5" y1="203" x2="48.5" y2="263" stroke="#832D2D"/>
<line x1="53.5" y1="203" x2="53.5" y2="263" stroke="#832D2D"/>
<line x1="58.5" y1="203" x2="58.5" y2="263" stroke="#832D2D"/>
<line x1="63.5" y1="203" x2="63.5" y2="263" stroke="#EA2328"/>
<line x1="68.5" y1="203" x2="68.5" y2="263" stroke="#CCCCCC" stroke-opacity="0.2"/>
<line x1="73.5" y1="203" x2="73.5" y2="263" stroke="#CCCCCC" stroke-opacity="0.2"/>
<line x1="78.5" y1="203" x2="78.5" y2="263" stroke="#CCCCCC" stroke-opacity="0.2"/>
<line x1="83.5" y1="203" x2="83.5" y2="263" stroke="#CCCCCC" stroke-opacity="0.2"/>
<line x1="88.5" y1="203" x2="88.5" y2="263" stroke="#CCCCCC" stroke-opacity="0.2"/>
<line x1="93.5" y1="203" x2="93.5" y2="263" stroke="#CCCCCC" stroke-opacity="0.2"/>
<line x1="98.5" y1="203" x2="98.5" y2="263" stroke="#CCCCCC" stroke-opacity="0.2"/>
<line x1="103.5" y1="203" x2="103.5" y2="263" stroke="#CCCCCC" stroke-opacity="0.2"/>
<line x1="108.5" y1="203" x2="108.5" y2="263" stroke="#CCCCCC" stroke-opacity="0.2"/>
<line x1="113.5" y1="203" x2="113.5" y2="263" stroke="#CCCCCC" stroke-opacity="0.2"/>
<line x1="118.5" y1="203" x2="118.5" y2="263" stroke="#CCCCCC" stroke-opacity="0.2"/>
<line x1="123.5" y1="203" x2="123.5" y2="263" stroke="#CCCCCC" stroke-opacity="0.2"/>
<line x1="128.5" y1="203" x2="128.5" y2="263" stroke="#CCCCCC" stroke-opacity="0.2"/>
<line x1="133.5" y1="203" x2="133.5" y2="263" stroke="#CCCCCC" stroke-opacity="0.2"/>
<line x1="138.5" y1="203" x2="138.5" y2="263" stroke="#CCCCCC" stroke-opacity="0.2"/>
<line x1="143.5" y1="203" x2="143.5" y2="263" stroke="#CCCCCC" stroke-opacity="0.2"/>
<line x1="148.5" y1="203" x2="148.5" y2="263" stroke="#CCCCCC" stroke-opacity="0.2"/>
<line x1="153.5" y1="203" x2="153.5" y2="263" stroke="#CCCCCC" stroke-opacity="0.2"/>
<line x1="158.5" y1="203" x2="158.5" y2="263" stroke="#CCCCCC" stroke-opacity="0.2"/>
<line x1="163.5" y1="203" x2="163.5" y2="263" stroke="#CCCCCC" stroke-opacity="0.2"/>
<line x1="168.5" y1="203" x2="168.5" y2="263" stroke="#CCCCCC" stroke-opacity="0.2"/>
<line x1="173.5" y1="203" x2="173.5" y2="263" stroke="#CCCCCC" stroke-opacity="0.2"/>
<line x1="178.5" y1="203" x2="178.5" y2="263" stroke="#CCCCCC" stroke-opacity="0.2"/>
<line x1="183.5" y1="203" x2="183.5" y2="263" stroke="#CCCCCC" stroke-opacity="0.2"/>
<line x1="188.5" y1="203" x2="188.5" y2="263" stroke="#CCCCCC" stroke-opacity="0.2"/>
<line x1="193.5" y1="203" x2="193.5" y2="263" stroke="#CCCCCC" stroke-opacity="0.2"/>
<line x1="198.5" y1="203" x2="198.5" y2="263" stroke="#CCCCCC" stroke-opacity="0.2"/>
<line x1="203.5" y1="203" x2="203.5" y2="263" stroke="#CCCCCC" stroke-opacity="0.2"/>
<line x1="208.5" y1="203" x2="208.5" y2="263" stroke="#CCCCCC" stroke-opacity="0.2"/>
<line x1="213.5" y1="203" x2="213.5" y2="263" stroke="#CCCCCC" stroke-opacity="0.2"/>
<line x1="218.5" y1="203" x2="218.5" y2="263" stroke="#CCCCCC" stroke-opacity="0.2"/>
<line x1="223.5" y1="203" x2="223.5" y2="263" stroke="#CCCCCC" stroke-opacity="0.2"/>
<line x1="228.5" y1="203" x2="228.5" y2="263" stroke="#CCCCCC" stroke-opacity="0.2"/>
<line x1="233.5" y1="203" x2="233.5" y2="263" stroke="#CCCCCC" stroke-opacity="0.2"/>
<line x1="238.5" y1="203" x2="238.5" y2="263" stroke="#CCCCCC" stroke-opacity="0.2"/>
<line x1="243.5" y1="203" x2="243.5" y2="263" stroke="#CCCCCC" stroke-opacity="0.2"/>
<line x1="248.5" y1="203" x2="248.5" y2="263" stroke="#CCCCCC" stroke-opacity="0.2"/>
<line x1="253.5" y1="203" x2="253.5" y2="263" stroke="#CCCCCC" stroke-opacity="0.2"/>
<line x1="258.5" y1="203" x2="258.5" y2="263" stroke="#CCCCCC" stroke-opacity="0.2"/>
<line x1="263.5" y1="203" x2="263.5" y2="263" stroke="#CCCCCC" stroke-opacity="0.2"/>
<line x1="268.5" y1="203" x2="268.5" y2="263" stroke="#CCCCCC" stroke-opacity="0.2"/>
<line x1="273.5" y1="203" x2="273.5" y2="263" stroke="#CCCCCC" stroke-opacity="0.2"/>
<line x1="278.5" y1="203" x2="278.5" y2="263" stroke="#CCCCCC" stroke-opacity="0.2"/>
<line x1="283.5" y1="203" x2="283.5" y2="263" stroke="#CCCCCC" stroke-opacity="0.2"/>
<line x1="288.5" y1="203" x2="288.5" y2="263" stroke="#CCCCCC" stroke-opacity="0.2"/>
<line x1="293.5" y1="203" x2="293.5" y2="263" stroke="#CCCCCC" stroke-opacity="0.2"/>
<line x1="298.5" y1="203" x2="298.5" y2="263" stroke="#CCCCCC" stroke-opacity="0.2"/>
<line x1="303.5" y1="203" x2="303.5" y2="263" stroke="#CCCCCC" stroke-opacity="0.2"/>
<line x1="308.5" y1="203" x2="308.5" y2="263" stroke="#CCCCCC" stroke-opacity="0.2"/>
<line x1="313.5" y1="203" x2="313.5" y2="263" stroke="#CCCCCC" stroke-opacity="0.2"/>
<line x1="318.5" y1="203" x2="318.5" y2="263" stroke="#CCCCCC" stroke-opacity="0.2"/>
<line x1="323.5" y1="203" x2="323.5" y2="263" stroke="#CCCCCC" stroke-opacity="0.2"/>
<line x1="328.5" y1="203" x2="328.5" y2="263" stroke="#CCCCCC" stroke-opacity="0.2"/>
<line x1="333.5" y1="203" x2="333.5" y2="263" stroke="#CCCCCC" stroke-opacity="0.2"/>
<line x1="338.5" y1="203" x2="338.5" y2="263" stroke="#CCCCCC" stroke-opacity="0.2"/>
<line x1="343.5" y1="203" x2="343.5" y2="263" stroke="#CCCCCC" stroke-opacity="0.2"/>
<line x1="348.5" y1="203" x2="348.5" y2="263" stroke="#CCCCCC" stroke-opacity="0.2"/>
<line x1="353.5" y1="203" x2="353.5" y2="263" stroke="#CCCCCC" stroke-opacity="0.2"/>
<line x1="358.5" y1="203" x2="358.5" y2="263" stroke="#CCCCCC" stroke-opacity="0.2"/>
<line x1="363.5" y1="203" x2="363.5" y2="263" stroke="#CCCCCC" stroke-opacity="0.2"/>
<line x1="368.5" y1="203" x2="368.5" y2="263" stroke="#CCCCCC" stroke-opacity="0.2"/>
<line x1="373.5" y1="203" x2="373.5" y2="263" stroke="#CCCCCC" stroke-opacity="0.2"/>
<line x1="378.5" y1="203" x2="378.5" y2="263" stroke="#CCCCCC" stroke-opacity="0.2"/>
<line x1="383.5" y1="203" x2="383.5" y2="263" stroke="#CCCCCC" stroke-opacity="0.2"/>
<line x1="388.5" y1="203" x2="388.5" y2="263" stroke="#CCCCCC" stroke-opacity="0.2"/>
<line x1="393.5" y1="203" x2="393.5" y2="263" stroke="#CCCCCC" stroke-opacity="0.2"/>
<line x1="398.5" y1="203" x2="398.5" y2="263" stroke="#CCCCCC" stroke-opacity="0.2"/>
<line x1="403.5" y1="203" x2="403.5" y2="263" stroke="#CCCCCC" stroke-opacity="0.2"/>
<line x1="408.5" y1="203" x2="408.5" y2="263" stroke="#CCCCCC" stroke-opacity="0.2"/>
<line x1="413.5" y1="203" x2="413.5" y2="263" stroke="#CCCCCC" stroke-opacity="0.2"/>
<line x1="418.5" y1="203" x2="418.5" y2="263" stroke="#CCCCCC" stroke-opacity="0.2"/>
<line x1="423.5" y1="203" x2="423.5" y2="263" stroke="#CCCCCC" stroke-opacity="0.2"/>
<line x1="428.5" y1="203" x2="428.5" y2="263" stroke="#CCCCCC" stroke-opacity="0.2"/>
<line x1="433.5" y1="203" x2="433.5" y2="263" stroke="#CCCCCC" stroke-opacity="0.2"/>
<line x1="438.5" y1="203" x2="438.5" y2="263" stroke="#CCCCCC" stroke-opacity="0.2"/>
<line x1="443.5" y1="203" x2="443.5" y2="263" stroke="#CCCCCC" stroke-opacity="0.2"/>
<line x1="448.5" y1="203" x2="448.5" y2="263" stroke="#CCCCCC" stroke-opacity="0.2"/>
<line x1="453.5" y1="203" x2="453.5" y2="263" stroke="#CCCCCC" stroke-opacity="0.2"/>
<line x1="458.5" y1="203" x2="458.5" y2="263" stroke="#CCCCCC" stroke-opacity="0.2"/>
<line x1="463.5" y1="203" x2="463.5" y2="263" stroke="#CCCCCC" stroke-opacity="0.2"/>
<line x1="468.5" y1="203" x2="468.5" y2="263" stroke="#CCCCCC" stroke-opacity="0.2"/>
</g>
<defs>
<filter id="filter0_f_1_906" x="388" y="-19" width="156" height="130" filterUnits="userSpaceOnUse" color-interpolation-filters="sRGB">
<feFlood flood-opacity="0" result="BackgroundImageFix"/>
<feBlend mode="normal" in="SourceGraphic" in2="BackgroundImageFix" result="shape"/>
<feGaussianBlur stdDeviation="15" result="effect1_foregroundBlur_1_906"/>
</filter>
<filter id="filter1_f_1_906" x="388" y="-19" width="156" height="130" filterUnits="userSpaceOnUse" color-interpolation-filters="sRGB">
<feFlood flood-opacity="0" result="BackgroundImageFix"/>
<feBlend mode="normal" in="SourceGraphic" in2="BackgroundImageFix" result="shape"/>
<feGaussianBlur stdDeviation="15" result="effect1_foregroundBlur_1_906"/>
</filter>
<filter id="filter2_f_1_906" x="99" y="186" width="156" height="130" filterUnits="userSpaceOnUse" color-interpolation-filters="sRGB">
<feFlood flood-opacity="0" result="BackgroundImageFix"/>
<feBlend mode="normal" in="SourceGraphic" in2="BackgroundImageFix" result="shape"/>
<feGaussianBlur stdDeviation="15" result="effect1_foregroundBlur_1_906"/>
</filter>
<filter id="filter3_f_1_906" x="115" y="183" width="156" height="130" filterUnits="userSpaceOnUse" color-interpolation-filters="sRGB">
<feFlood flood-opacity="0" result="BackgroundImageFix"/>
<feBlend mode="normal" in="SourceGraphic" in2="BackgroundImageFix" result="shape"/>
<feGaussianBlur stdDeviation="15" result="effect1_foregroundBlur_1_906"/>
</filter>
<clipPath id="clip0_1_906">
<rect width="520" height="291" fill="white"/>
</clipPath>
</defs>
</svg>
