<svg width="150" height="41" viewBox="0 0 150 41" fill="none" xmlns="http://www.w3.org/2000/svg">
<g clip-path="url(#clip0_1_806)">
<path d="M51.0797 7.30493H53.8955L58.3272 21.7731L62.7541 7.30493H65.5741L59.5573 25.7586H57.0969L51.0796 7.30493H51.0797ZM74.3064 17.4066C74.3064 16.5446 74.0726 15.8729 73.6134 15.3968C73.15 14.9199 72.5005 14.6775 71.6512 14.6775C71.1267 14.6775 70.6114 14.76 70.1089 14.9199C69.6065 15.0805 69.1602 15.3058 68.7707 15.5915L66.8817 14.2967C67.3799 13.699 68.0381 13.2306 68.8526 12.8973C69.6713 12.564 70.5767 12.3949 71.5773 12.3949C72.6689 12.3949 73.6006 12.5853 74.3802 12.9712C75.1599 13.3564 75.7533 13.915 76.1563 14.6471C76.5635 15.3797 76.7675 16.2632 76.7675 17.2944V25.7586H74.3064V17.4067V17.4066ZM71.0791 25.949C69.4551 25.949 68.242 25.6114 67.4405 24.9398C66.6352 24.2682 66.2323 23.2462 66.2323 21.8774C66.2323 20.5733 66.6004 19.5941 67.3367 18.9445C68.073 18.2906 69.1866 17.9652 70.6769 17.9652H74.4195L74.5971 20.0489H70.6898C70.0097 20.0489 69.5072 20.1966 69.1691 20.4995C68.8357 20.7986 68.6709 21.2577 68.6709 21.8774C68.6709 22.5442 68.8919 23.038 69.3381 23.3585C69.7801 23.6834 70.4561 23.844 71.3614 23.844C72.3486 23.844 73.0898 23.7353 73.5745 23.5234C74.0599 23.3153 74.3065 22.9818 74.3065 22.5355L74.5708 24.3897C74.3413 24.7451 74.0598 25.0351 73.7265 25.2646C73.3925 25.4898 73.0073 25.6633 72.5653 25.7757C72.1276 25.8929 71.6294 25.949 71.0793 25.949H71.0791ZM82.1724 22.358C82.1724 22.6785 82.2456 22.9257 82.3842 23.0985C82.5228 23.2719 82.7182 23.3585 82.9734 23.3585H84.1908V25.8232H82.6706C81.687 25.8232 80.9287 25.5162 80.3914 24.9093C79.8548 24.2988 79.5861 23.441 79.5861 22.3323V7.30493H82.1723V22.358H82.1724ZM85.9967 12.5852H88.5829V25.7585H85.9967V12.5852ZM96.7994 25.949C95.5826 25.949 94.5385 25.7195 93.6765 25.2646C92.8146 24.8055 92.1558 24.1339 91.7052 23.2505C91.2503 22.3665 91.0251 21.3011 91.0251 20.0489V18.5635C91.0251 17.2594 91.2419 16.1458 91.6796 15.2233C92.1125 14.3008 92.745 13.5986 93.5764 13.1183C94.4044 12.6371 95.4049 12.3948 96.5699 12.3948C97.6706 12.3948 98.6103 12.672 99.3898 13.2178C100.165 13.7678 100.759 14.5652 101.171 15.605C101.582 16.644 101.786 17.8962 101.786 19.3517V20.2136H92.9013V18.13H99.3251C99.2469 17.0555 98.9697 16.2197 98.4936 15.6263C98.0168 15.0286 97.3757 14.7294 96.5699 14.7294C95.5911 14.7294 94.8287 15.0499 94.2914 15.6958C93.7541 16.337 93.4855 17.2465 93.4855 18.4249V20.0965C93.4855 21.1882 93.7762 22.0288 94.3475 22.6094C94.9239 23.1943 95.7426 23.4886 96.7994 23.4886C97.3237 23.4886 97.8434 23.3805 98.3592 23.168C98.8745 22.9599 99.338 22.6613 99.7452 22.2798L101.444 23.9826C100.794 24.6065 100.061 25.0912 99.247 25.4338C98.4369 25.7756 97.6182 25.9491 96.7995 25.9491L96.7994 25.949ZM104.228 12.5852H106.814V25.7585H104.228V12.5852ZM112.221 17.7747C112.221 16.8437 111.982 16.1245 111.497 15.6177C111.016 15.111 110.34 14.8552 109.47 14.8552C108.62 14.8552 107.971 15.0804 107.507 15.531C107.048 15.9773 106.814 16.6097 106.814 17.4193L106.55 14.8815C106.957 14.0883 107.485 13.4736 108.144 13.0401C108.798 12.6115 109.521 12.3948 110.319 12.3948C111.748 12.3948 112.853 12.8624 113.637 13.7984C114.421 14.7337 114.811 16.0549 114.811 17.7619V25.7585H112.221V17.7747H112.221ZM121.061 25.8232C119.996 25.8232 119.211 25.529 118.718 24.9398C118.224 24.3506 117.976 23.4843 117.976 22.3323V8.75181H120.567V22.358C120.567 22.6785 120.628 22.9257 120.753 23.0985C120.883 23.2719 121.069 23.3585 121.312 23.3585H122.555V25.8232H121.061H121.061ZM116.616 12.5852H122.555V14.9199H116.616V12.5852ZM130.391 25.949C129.174 25.949 128.13 25.7195 127.268 25.2646C126.406 24.8055 125.747 24.1339 125.297 23.2505C124.842 22.3665 124.617 21.3011 124.617 20.0489V18.5635C124.617 17.2594 124.834 16.1458 125.271 15.2233C125.704 14.3008 126.337 13.5986 127.168 13.1183C127.996 12.6371 128.997 12.3948 130.161 12.3948C131.262 12.3948 132.202 12.672 132.981 13.2178C133.757 13.7678 134.351 14.5652 134.762 15.605C135.174 16.644 135.377 17.8962 135.377 19.3517V20.2136H126.493V18.13H132.917C132.839 17.0555 132.561 16.2197 132.085 15.6263C131.608 15.0286 130.967 14.7294 130.161 14.7294C129.183 14.7294 128.42 15.0499 127.883 15.6958C127.346 16.337 127.077 17.2465 127.077 18.4249V20.0965C127.077 21.1882 127.368 22.0288 127.939 22.6094C128.515 23.1943 129.334 23.4886 130.391 23.4886C130.915 23.4886 131.435 23.3805 131.951 23.168C132.466 22.9599 132.93 22.6613 133.337 22.2798L135.035 23.9826C134.385 24.6065 133.653 25.0912 132.839 25.4338C132.029 25.7756 131.21 25.9491 130.391 25.9491L130.391 25.949Z" fill="#FEFEFE"/>
<path d="M41.0152 4.77954H18.9122C16.5434 4.77954 14.623 6.69985 14.623 9.06868V31.1717C14.623 33.5405 16.5434 35.4608 18.9122 35.4608H41.0152C43.384 35.4608 45.3043 33.5405 45.3043 31.1717V9.06868C45.3043 6.69985 43.384 4.77954 41.0152 4.77954Z" fill="#CC0808"/>
<path fill-rule="evenodd" clip-rule="evenodd" d="M41.717 4.83813C43.7435 5.17724 45.3007 6.94976 45.3007 9.06822V31.1713C45.3007 33.5301 43.3704 35.4605 41.0115 35.4605H18.9085C18.3844 35.4605 17.8817 35.3648 17.4166 35.1907C17.646 35.2295 17.8817 35.2498 18.122 35.2498H40.225C42.5838 35.2498 44.5142 33.3195 44.5142 30.9606V8.85763C44.5142 7.0229 43.3463 5.44793 41.7169 4.83813H41.717Z" fill="#730404"/>
<path fill-rule="evenodd" clip-rule="evenodd" d="M40.5975 8.30029C40.823 8.35966 41.0415 8.45813 41.2424 8.59873C42.0815 9.18876 42.7412 10.4603 42.2181 11.3626L30.6711 31.3115C30.1601 32.1938 28.6551 32.4585 27.7364 32.0639C27.6415 32.0234 27.5512 31.9763 27.4663 31.9237C28.3854 32.1669 29.6607 31.8742 30.1228 31.0765L41.6697 11.1276C42.1928 10.2252 41.5331 8.9538 40.6941 8.36376L40.5975 8.3004V8.30029Z" fill="#730404"/>
<path fill-rule="evenodd" clip-rule="evenodd" d="M22.9553 20.0587L29.5453 8.9579C30.1523 7.93545 31.7649 7.76175 32.7215 8.43259C33.5527 9.01443 33.8302 10.2128 33.3059 11.0958L26.7158 22.1966C26.2039 23.0618 25.0853 23.4353 24.17 23.0463C23.0743 22.5801 22.3294 21.114 22.9553 20.0588V20.0587Z" fill="white"/>
<path d="M20.4628 13.9427C22.0866 13.9427 23.403 12.6263 23.403 11.0025C23.403 9.37863 22.0866 8.06226 20.4628 8.06226C18.839 8.06226 17.5226 9.37863 17.5226 11.0025C17.5226 12.6263 18.839 13.9427 20.4628 13.9427Z" fill="white"/>
<path fill-rule="evenodd" clip-rule="evenodd" d="M20.6189 8.06641C22.17 8.14742 23.4032 9.43111 23.4032 11.0024C23.4032 12.6262 22.0863 13.9425 20.4623 13.9425C20.2428 13.9425 20.028 13.9182 19.8223 13.8725L19.9781 13.8767C21.602 13.8767 22.9189 12.5605 22.9189 10.9366C22.9189 9.53304 21.9344 8.35885 20.6189 8.06641Z" fill="#730404"/>
<path fill-rule="evenodd" clip-rule="evenodd" d="M32.6033 8.34961C32.6483 8.37683 32.6928 8.40499 32.7366 8.43588C33.567 9.01951 33.8454 10.2158 33.3214 11.0989L26.7314 22.2001C26.2177 23.0638 25.1005 23.4385 24.185 23.0492C23.9832 22.9635 23.802 22.8475 23.644 22.709C23.7203 22.7545 23.8008 22.7953 23.8845 22.8307C24.7999 23.22 25.9172 22.8454 26.4308 21.9816L33.0208 10.8804C33.5078 10.0595 33.3015 8.96833 32.6032 8.34961H32.6033Z" fill="#730404"/>
<path fill-rule="evenodd" clip-rule="evenodd" d="M26.2267 28.9541L37.7734 9.00508C38.3704 7.97464 39.7345 7.69092 40.6942 8.36344C41.5329 8.9538 42.1926 10.2252 41.6696 11.1275L30.1229 31.0765C29.6115 31.9588 28.1065 32.2236 27.1882 31.8286C26.0863 31.3589 25.6122 30.018 26.2265 28.954L26.2267 28.9541Z" fill="white"/>
<path d="M88.2135 7.29932H86.3552C86.156 7.29932 85.9945 7.46078 85.9945 7.65996V9.51834C85.9945 9.71751 86.156 9.87898 86.3552 9.87898H88.2135C88.4127 9.87898 88.5742 9.71751 88.5742 9.51834V7.65996C88.5742 7.46078 88.4127 7.29932 88.2135 7.29932Z" fill="#CC0808"/>
<path d="M57.0321 32.2388H56.3963L57.365 29.4324H58.1297L59.0971 32.2388H58.4613L57.7583 30.0737H57.7364L57.0321 32.2388ZM56.9923 31.1357H58.4942V31.5988H56.9923V31.1357ZM60.8932 30.2395C60.8822 30.129 60.8352 30.0431 60.7521 29.9819C60.6689 29.9207 60.5561 29.8901 60.4136 29.8901C60.3168 29.8901 60.235 29.9038 60.1683 29.9312C60.1016 29.9577 60.0505 29.9947 60.0148 30.0422C59.9801 30.0897 59.9628 30.1436 59.9628 30.2039C59.9609 30.2541 59.9714 30.298 59.9943 30.3354C60.018 30.3729 60.0505 30.4053 60.0916 30.4327C60.1327 30.4592 60.1802 30.4825 60.2341 30.5026C60.288 30.5218 60.3455 30.5382 60.4067 30.5519L60.6589 30.6122C60.7813 30.6396 60.8936 30.6762 60.996 30.7219C61.0983 30.7675 61.1869 30.8237 61.2618 30.8904C61.3367 30.9571 61.3947 31.0357 61.4358 31.1261C61.4778 31.2165 61.4993 31.3202 61.5002 31.4372C61.4993 31.6089 61.4555 31.7578 61.3687 31.8839C61.2828 32.009 61.1586 32.1063 60.996 32.1757C60.8343 32.2443 60.6392 32.2785 60.4109 32.2785C60.1843 32.2785 59.987 32.2438 59.8189 32.1744C59.6517 32.1049 59.5211 32.0022 59.427 31.8661C59.3338 31.729 59.2849 31.5596 59.2804 31.3577H59.8545C59.8609 31.4518 59.8879 31.5303 59.9354 31.5934C59.9838 31.6555 60.0482 31.7025 60.1286 31.7345C60.2099 31.7656 60.3017 31.7811 60.404 31.7811C60.5045 31.7811 60.5917 31.7665 60.6657 31.7372C60.7406 31.708 60.7986 31.6674 60.8398 31.6153C60.8809 31.5632 60.9014 31.5034 60.9014 31.4358C60.9014 31.3727 60.8827 31.3198 60.8452 31.2768C60.8087 31.2339 60.7548 31.1974 60.6835 31.1672C60.6132 31.1371 60.5269 31.1097 60.4246 31.085L60.119 31.0083C59.8824 30.9507 59.6956 30.8607 59.5585 30.7383C59.4215 30.6159 59.3534 30.451 59.3544 30.2436C59.3534 30.0737 59.3987 29.9253 59.49 29.7983C59.5823 29.6713 59.7088 29.5722 59.8696 29.5009C60.0304 29.4297 60.2131 29.3941 60.4177 29.3941C60.626 29.3941 60.8078 29.4297 60.9631 29.5009C61.1193 29.5722 61.2408 29.6713 61.3276 29.7983C61.4144 29.9253 61.4591 30.0723 61.4619 30.2395H60.8932ZM63.4217 30.2395C63.4108 30.129 63.3637 30.0431 63.2806 29.9819C63.1974 29.9207 63.0846 29.8901 62.9421 29.8901C62.8453 29.8901 62.7635 29.9038 62.6968 29.9312C62.6301 29.9577 62.579 29.9947 62.5434 30.0422C62.5086 30.0897 62.4913 30.1436 62.4913 30.2039C62.4895 30.2541 62.5 30.298 62.5228 30.3354C62.5466 30.3729 62.579 30.4053 62.6201 30.4327C62.6612 30.4592 62.7087 30.4825 62.7626 30.5026C62.8165 30.5218 62.8741 30.5382 62.9353 30.5519L63.1874 30.6122C63.3098 30.6396 63.4222 30.6762 63.5245 30.7219C63.6268 30.7675 63.7154 30.8237 63.7903 30.8904C63.8652 30.9571 63.9232 31.0357 63.9643 31.1261C64.0064 31.2165 64.0278 31.3202 64.0288 31.4372C64.0278 31.6089 63.984 31.7578 63.8972 31.8839C63.8113 32.009 63.6871 32.1063 63.5245 32.1757C63.3628 32.2443 63.1678 32.2785 62.9394 32.2785C62.7128 32.2785 62.5155 32.2438 62.3474 32.1744C62.1802 32.1049 62.0496 32.0022 61.9555 31.8661C61.8623 31.729 61.8135 31.5596 61.8089 31.3577H62.383C62.3894 31.4518 62.4164 31.5303 62.4639 31.5934C62.5123 31.6555 62.5767 31.7025 62.6571 31.7345C62.7384 31.7656 62.8302 31.7811 62.9325 31.7811C63.033 31.7811 63.1203 31.7665 63.1942 31.7372C63.2692 31.708 63.3272 31.6674 63.3683 31.6153C63.4094 31.5632 63.4299 31.5034 63.4299 31.4358C63.4299 31.3727 63.4112 31.3198 63.3738 31.2768C63.3372 31.2339 63.2833 31.1974 63.2121 31.1672C63.1417 31.1371 63.0554 31.1097 62.9531 31.085L62.6475 31.0083C62.4109 30.9507 62.2241 30.8607 62.0871 30.7383C61.95 30.6159 61.882 30.451 61.8829 30.2436C61.882 30.0737 61.9272 29.9253 62.0185 29.7983C62.1108 29.6713 62.2373 29.5722 62.3981 29.5009C62.5589 29.4297 62.7416 29.3941 62.9462 29.3941C63.1545 29.3941 63.3363 29.4297 63.4916 29.5009C63.6478 29.5722 63.7693 29.6713 63.8561 29.7983C63.9429 29.9253 63.9876 30.0723 63.9904 30.2395H63.4217ZM64.4278 32.2388V29.4324H66.3188V29.9216H65.0212V30.5903H66.2216V31.0795H65.0212V31.7496H66.3243V32.2388H64.4278ZM66.6837 29.9216V29.4324H68.9885V29.9216H68.1293V32.2388H67.5429V29.9216H66.6837ZM70.2612 29.4324H70.9929L71.7657 31.3179H71.7986L72.5715 29.4324H73.3032V32.2388H72.7277V30.4122H72.7044L71.9781 32.2251H71.5862L70.86 30.4053H70.8367V32.2388H70.2612V29.4324ZM74.2758 32.2388H73.6399L74.6087 29.4324H75.3734L76.3408 32.2388H75.705L75.002 30.0737H74.9801L74.2758 32.2388ZM74.236 31.1357H75.7379V31.5988H74.236V31.1357ZM79.0259 29.4324V32.2388H78.5134L77.2924 30.4725H77.2719V32.2388H76.6786V29.4324H77.1993L78.4106 31.1974H78.4353V29.4324H79.0259ZM79.9998 32.2388H79.364L80.3328 29.4324H81.0974L82.0648 32.2388H81.429L80.726 30.0737H80.7041L79.9998 32.2388ZM79.9601 31.1357H81.4619V31.5988H79.9601V31.1357ZM84.1316 30.3396C84.1124 30.2729 84.0854 30.2139 84.0507 30.1628C84.016 30.1107 83.9735 30.0669 83.9233 30.0312C83.8739 29.9947 83.8173 29.9668 83.7534 29.9476C83.6903 29.9285 83.6204 29.9189 83.5437 29.9189C83.4003 29.9189 83.2742 29.9545 83.1655 30.0258C83.0577 30.097 82.9737 30.2007 82.9134 30.3368C82.8531 30.472 82.8229 30.6374 82.8229 30.8329C82.8229 31.0283 82.8526 31.1946 82.912 31.3316C82.9714 31.4687 83.0554 31.5733 83.1641 31.6454C83.2728 31.7167 83.4012 31.7523 83.5492 31.7523C83.6835 31.7523 83.7981 31.7286 83.8931 31.6811C83.989 31.6326 84.0621 31.5646 84.1124 31.4769C84.1635 31.3892 84.1891 31.2855 84.1891 31.1658L84.3097 31.1836H83.5862V30.7369H84.7605V31.0905C84.7605 31.3371 84.7084 31.5491 84.6043 31.7263C84.5002 31.9026 84.3567 32.0387 84.174 32.1346C83.9913 32.2296 83.7821 32.2771 83.5464 32.2771C83.2833 32.2771 83.0522 32.2191 82.8531 32.1031C82.6539 31.9862 82.4986 31.8204 82.3872 31.6057C82.2766 31.3901 82.2214 31.1343 82.2214 30.8383C82.2214 30.6109 82.2543 30.4081 82.32 30.2299C82.3867 30.0509 82.4799 29.8992 82.5996 29.775C82.7192 29.6508 82.8586 29.5562 83.0175 29.4913C83.1765 29.4265 83.3487 29.3941 83.5341 29.3941C83.6931 29.3941 83.8411 29.4173 83.9781 29.4639C84.1151 29.5096 84.2366 29.5745 84.3426 29.6585C84.4495 29.7426 84.5367 29.8426 84.6043 29.9586C84.6719 30.0737 84.7153 30.2007 84.7345 30.3396H84.1316ZM85.2062 32.2388V29.4324H87.0972V29.9216H85.7995V30.5903H86.9999V31.0795H85.7995V31.7496H87.1027V32.2388H85.2062ZM87.5689 29.4324H88.3007L89.0735 31.3179H89.1064L89.8792 29.4324H90.611V32.2388H90.0354V30.4122H90.0121L89.2859 32.2251H88.894L88.1677 30.4053H88.1444V32.2388H87.5689V29.4324ZM91.0998 32.2388V29.4324H92.9908V29.9216H91.6931V30.5903H92.8935V31.0795H91.6931V31.7496H92.9963V32.2388H91.0998ZM95.8098 29.4324V32.2388H95.2973L94.0764 30.4725H94.0559V32.2388H93.4625V29.4324H93.9832L95.1946 31.1974H95.2192V29.4324H95.8098ZM96.1932 29.9216V29.4324H98.498V29.9216H97.6388V32.2388H97.0523V29.9216H96.1932Z" fill="#FEFEFE"/>
</g>
<defs>
<clipPath id="clip0_1_806">
<rect width="150" height="41" fill="white"/>
</clipPath>
</defs>
</svg>
