<svg width="145" height="196" viewBox="0 0 145 196" fill="none" xmlns="http://www.w3.org/2000/svg">
<path d="M161.249 163.339C147.138 172.058 128.224 170.133 108.999 159.849C89.7829 149.569 70.3194 130.966 55.1821 106.467C40.0448 81.9675 32.1165 56.2375 31.5214 34.4526C30.926 12.6582 37.6665 -5.11849 51.778 -13.8375C65.8895 -22.5565 84.8035 -20.6308 104.028 -10.3468C123.245 -0.067362 142.708 18.5355 157.845 43.0349C172.983 67.5342 180.911 93.2643 181.506 115.049C182.101 136.844 175.361 154.62 161.249 163.339Z" stroke="#CCCCCC" stroke-opacity="0.4" stroke-width="0.64881"/>
<path d="M161.249 163.339C149.539 170.575 132.792 167.358 115.102 156.103C97.4332 144.862 78.9253 125.659 63.7833 101.153C48.6414 76.6456 39.7492 51.5017 37.6018 30.6704C35.4518 9.81408 40.0677 -6.6021 51.778 -13.8375C63.4882 -21.0728 80.2349 -17.8558 97.925 -6.60128C115.594 4.63983 134.102 23.8425 149.244 48.3493C164.386 72.8562 173.278 98.0001 175.426 118.831C177.576 139.688 172.96 156.104 161.249 163.339Z" stroke="#CCCCCC" stroke-opacity="0.4" stroke-width="0.64881"/>
<path d="M161.249 163.339C156.603 166.21 150.644 166.533 143.801 164.594C136.959 162.655 129.268 158.463 121.206 152.36C105.083 140.156 87.5309 120.352 72.3845 95.838C57.2382 71.324 47.3809 46.766 43.6799 26.8863C41.8293 16.9454 41.5213 8.19158 42.8489 1.20487C44.1765 -5.78156 47.1314 -10.9666 51.7779 -13.8376C56.4245 -16.7085 62.3837 -17.0311 69.2258 -15.0925C76.0681 -13.1537 83.759 -8.96156 91.8213 -2.85856C107.944 9.34608 125.496 29.1497 140.643 53.6637C155.789 78.1777 165.646 102.736 169.347 122.615C171.198 132.556 171.506 141.31 170.178 148.297C168.851 155.283 165.896 160.468 161.249 163.339Z" stroke="#CCCCCC" stroke-opacity="0.4" stroke-width="0.64881"/>
<path d="M161.249 163.339C157.825 165.455 153.025 165.116 147.192 162.541C141.371 159.971 134.6 155.207 127.31 148.62C112.733 135.45 96.1365 115.044 80.986 90.5236C65.8355 66.0029 55.012 42.0305 49.7558 23.1011C47.1271 13.6342 45.896 5.44698 46.2024 -0.908647C46.5094 -7.27677 48.3533 -11.7215 51.7781 -13.8375C55.2029 -15.9536 60.0029 -15.6139 65.8354 -13.0392C71.6564 -10.4694 78.4276 -5.70531 85.7178 0.881391C100.295 14.0518 116.891 34.4574 132.042 58.9781C147.192 83.4989 158.016 107.471 163.272 126.401C165.9 135.868 167.132 144.055 166.825 150.41C166.518 156.778 164.674 161.223 161.249 163.339Z" stroke="#CCCCCC" stroke-opacity="0.4" stroke-width="0.64881"/>
<path d="M161.249 163.339C161.056 163.459 160.768 163.498 160.339 163.386C159.91 163.274 159.379 163.019 158.747 162.609C157.486 161.79 155.886 160.398 153.988 158.473C150.195 154.627 145.258 148.705 139.514 141.149C128.03 126.04 113.347 104.428 98.1884 79.8948C83.0302 55.3616 70.2719 32.5601 61.8982 15.5291C57.7106 7.01184 54.624 -0.0531199 52.8813 -5.16608C52.0091 -7.72511 51.4795 -9.77845 51.3119 -11.2731C51.228 -12.0215 51.2373 -12.6102 51.3289 -13.0443C51.4205 -13.4785 51.5849 -13.7181 51.778 -13.8375C51.9711 -13.9568 52.2589 -13.9965 52.6883 -13.8842C53.1175 -13.7718 53.6481 -13.5168 54.2799 -13.1069C55.5416 -12.2883 57.141 -10.8959 59.0393 -8.97086C62.8322 -5.12466 67.7695 0.796795 73.5129 8.35278C84.9974 23.4617 99.6807 45.0738 114.839 69.607C129.997 94.1403 142.755 116.942 151.129 133.973C155.317 142.49 158.403 149.555 160.146 154.668C161.018 157.227 161.548 159.28 161.715 160.775C161.799 161.523 161.79 162.112 161.698 162.546C161.607 162.98 161.442 163.22 161.249 163.339Z" stroke="#CCCCCC" stroke-opacity="0.4" stroke-width="0.64881"/>
</svg>
